<?xml version="1.0" encoding="UTF-8" standalone="no"?>
<!-- Created with Inkscape (http://www.inkscape.org/) -->

<svg
   xmlns:dc="http://purl.org/dc/elements/1.1/"
   xmlns:cc="http://creativecommons.org/ns#"
   xmlns:rdf="http://www.w3.org/1999/02/22-rdf-syntax-ns#"
   xmlns:svg="http://www.w3.org/2000/svg"
   xmlns="http://www.w3.org/2000/svg"
   xmlns:sodipodi="http://sodipodi.sourceforge.net/DTD/sodipodi-0.dtd"
   xmlns:inkscape="http://www.inkscape.org/namespaces/inkscape"
   width="339"
   height="339"
   id="svg2"
   version="1.1"
   inkscape:version="0.92.2 2405546, 2018-03-11"
   sodipodi:docname="meson_logo.svg">
  <defs
     id="defs4" />
  <sodipodi:namedview
     id="base"
     pagecolor="#ffffff"
     bordercolor="#666666"
     borderopacity="1.0"
     inkscape:pageopacity="0.0"
     inkscape:pageshadow="2"
     inkscape:zoom="2.0639592"
     inkscape:cx="149.83604"
     inkscape:cy="93.599966"
     inkscape:document-units="px"
     inkscape:current-layer="layer1"
     showgrid="false"
     inkscape:window-width="2538"
     inkscape:window-height="1378"
     inkscape:window-x="10"
     inkscape:window-y="34"
     inkscape:window-maximized="0"
     showguides="true"
     inkscape:guide-bbox="true">
    <inkscape:grid
       type="xygrid"
       id="grid3755" />
    <sodipodi:guide
       orientation="0,1"
       position="121.42857,983.92857"
       id="guide3805"
       inkscape:locked="false" />
    <sodipodi:guide
       orientation="0,1"
       position="380.71429,-92.142857"
       id="guide3807"
       inkscape:locked="false" />
    <sodipodi:guide
       orientation="0,1"
       position="141.42857,892.14286"
       id="guide3809"
       inkscape:locked="false" />
    <sodipodi:guide
       orientation="0,1"
       position="340,757.14285"
       id="guide3811"
       inkscape:locked="false" />
    <sodipodi:guide
       position="-172.14286,-15"
       orientation="1,0"
       id="guide4163"
       inkscape:locked="false" />
  </sodipodi:namedview>
  <metadata
     id="metadata7">
    <rdf:RDF>
      <cc:Work
         rdf:about="">
        <dc:format>image/svg+xml</dc:format>
        <dc:type
           rdf:resource="http://purl.org/dc/dcmitype/StillImage" />
        <dc:title></dc:title>
      </cc:Work>
    </rdf:RDF>
  </metadata>
  <g
     inkscape:label="Layer 1"
     inkscape:groupmode="layer"
     id="layer1"
     transform="translate(0,-713.36218)">
    <path
       style="fill:#389f00;fill-opacity:1;stroke:none;stroke-opacity:1"
       d="m 82.5847,1022.2167 c -17.21481,0 -47.14006,-0.8493 -60.97457,-13.1757 C 7.7756197,996.7146 4.7645697,991.5887 2.5184099,973.52164 0.42936,956.71827 -0.12969,939.8022 1.02679,923.14369 4.0990397,902.32855 6.1614097,875.5177 13.08092,855.50772 c 6.23548,-30.42036 13.58284,-55.1649 25.9691,-83.71645 5.06527,-13.28779 16.76769,-22.55743 30.27757,-25.94896 15.50334,-3.30801 29.68022,-2.91134 46.74465,-1.2459 14.78626,1.27468 30.83798,17.06624 32.88238,34.59782 2.02303,17.34845 1.73385,22.0552 3.2728,37.6258 -0.19443,8.76313 6.34424,22.76615 16.45974,22.40303 9.56867,-0.34349 16.48036,-12.71842 17.51509,-20.93494 2.35599,-18.70837 -0.6551,-19.81684 2.94334,-37.3491 3.59844,-17.53227 14.18885,-33.04355 30.48873,-36.54074 16.26809,-2.12031 28.63094,-2.71731 46.02053,0.49697 18.07396,3.34079 26.93793,12.81813 33.62878,26.593 6.73685,13.86957 10.49571,27.84178 16.21017,43.09018 4.88864,13.04479 8.56125,29.18303 10.94268,42.92887 3.32552,15.18288 3.65237,21.38717 6.77781,36.57323 0.77923,16.65538 4.45192,19.80725 5.02299,35.71533 0.35582,9.91195 -0.29524,39.12315 -2.43742,46.76046 -2.93782,13.52423 -7.12707,26.02688 -16.79636,33.20928 -12.64781,8.531 -33.08952,11.6026 -47.55104,12.3248 -18.33849,0.1263 -30.65715,1.2402 -48.96624,-1.0801 -14.10098,-2.7852 -21.50029,-13.821 -20.71192,-29.39233 1.06365,-21.00843 21.00671,-22.03777 35.65227,-22.0668 14.64556,-0.029 35.24942,-0.73393 37.06929,-19.42192 2.88023,-18.22229 0.38467,-36.76259 -2.58508,-54.95764 -2.30841,-16.30474 -8.74904,-35.18114 -15.47418,-50.2434 -1.96378,-11.35393 -19.50871,-15.47994 -23.80866,-4.84186 -5.41476,8.88334 -4.61169,19.77501 -7.41008,29.84511 -2.83889,10.21585 -1.44479,19.7209 -5.44492,32.54371 -4.76333,15.2693 -4.62217,18.45204 -20.66557,24.86079 -15.69676,2.99362 -39.52174,2.95141 -55.28152,0.43903 -14.06764,-2.44948 -22.74154,-14.03686 -24.98313,-27.54206 -3.16922,-11.4823 -2.40407,-23.59284 -4.92263,-35.45854 -2.5605,-12.06331 -6.37931,-35.47292 -22.0005,-29.70057 -11.4991,4.24916 -17.39709,28.66088 -22.07262,43.97383 -4.41,20.15236 -9.59637,40.99697 -6.08472,61.67032 -2.34204,29.06652 17.85275,26.14283 32.492636,29.17728 12.507244,0 38.932134,0.75389 40.845624,17.16664 1.14528,9.82353 1.53864,23.62381 -11.36782,30.99331 -9.67605,5.5465 -25.93319,4.1615 -43.14799,4.1615 z M 255.65237,845.3529 c -1.14992,-1.69089 1.64273,0.31937 0,0 z"
       id="path3783-1"
       inkscape:connector-curvature="0"
       sodipodi:nodetypes="zzscccccscsszcsssccsccccszccccsscccsscccsczcc"
       inkscape:export-filename="/home/jpakkane/workspace/meson/graphics/meson_logo_big.png"
       inkscape:export-xdpi="300"
       inkscape:export-ydpi="300" />
  </g>
</svg>
