/* XPM */
static char*dbgparam[]={
"22 22 4 1",
"# c #000000",
"a c #400000",
". c None",
"b c #c00000",
"......................",
"......................",
"......................",
"......................",
"......................",
"......................",
"......................",
"......................",
".......##....##.......",
"......##......##......",
"......##......##......",
".....a#........#a.....",
".....aa........aa.....",
".....aa........aa.....",
".....aa........aa.....",
".....a#........#a.....",
"......##..bb..##......",
"......##..bb..##......",
".......##....##.......",
"......................",
"......................",
"......................"};
