/* XPM */
static char*dbgrunto[]={
"22 22 6 1",
"d c #bebebe",
"# c #000000",
"a c #8b0000",
"c c #a9a9a9",
"b c #ffffff",
". c None",
"......................",
"......................",
"......................",
".........########.....",
".aa......#bbbbbb#c....",
".aa..d...#bbbbbb#bc...",
".aa..d...#bbbbbb###c..",
".aa..d...#bb###bbbbc..",
".aa..aa..#bbbbbbbbbc..",
".aaa.daa.#bb#d###dbc..",
"..aaaaaaa...d..bd.....",
"...aaaaaa.............",
"......aa.#d..bd..bd...",
".....aa..#bd###d#bbc..",
".........#bbbbbbbbbc..",
".........#bb#####bbc..",
".........#bbbbbbbbbc..",
".........#bbbbbbbbbc..",
".........ccccccccccc..",
"......................",
"......................",
"......................"};
