/* XPM */
static char*unchecked[]={
"16 16 3 1",
"# c #000000",
"+ c #ffffff",
". c None",
"................",
"................",
"..++++++++++++..",
"..+##########+..",
"..+#++++++++#+..",
"..+#+......+#+..",
"..+#+......+#+..",
"..+#+......+#+..",
"..+#+......+#+..",
"..+#+......+#+..",
"..+#+......+#+..",
"..+#++++++++#+..",
"..+##########+..",
"..++++++++++++..",
"................",
"................"};
