/* XPM */
static const char* kde2_minbutton[]={
"12 12 2 1",
". s None c None",
"# c #000000",
"............",
"............",
"............",
"............",
"....####....",
"....####....",
"....####....",
"....####....",
"............",
"............",
"............",
"............"};
