/* XPM */
static const char* kde2_closebutton_menu[]={
"27 14 3 1",
". s None c None",
"+ c #303030",
"# c #000000",
"##########################.",
"#........................#+",
"#........................#+",
"#.........#....#.........#+",
"#........###..###........#+",
"#.........######.........#+",
"#..........####..........#+",
"#..........####..........#+",
"#.........######.........#+",
"#........###..###........#+",
"#.........#....#.........#+",
"#........................#+",
"##########################+",
".++++++++++++++++++++++++++"};
