/* XPM */
static const char* kde2_undockbutton[]={
"20 8 2 1",
". c #c3c3c3",
"# c #000000",
".....######.........",
".....#####..........",
".....####...........",
".....#####..........",
".....##.###.........",
".....#...###........",
"..........###.......",
"...........##......."};
