/* XPM */
static const char* kde2laptop_closebutton[]={
"20 8 2 1",
". s None c None",
"# c #000000",
".......#....#.......",
"......###..###......",
".......######.......",
"........####........",
"........####........",
".......######.......",
"......###..###......",
".......#....#......."};
