/* XPM */
static char *undo[] = {
/* columns rows colors chars-per-pixel */
"16 15 23 1",
"  c #000100010001",
". c #0170016F0162",
"X c #02B802E802C8",
"o c #037D026B0273",
"O c #048802AC02C1",
"+ c #055D031C0338",
"@ c #08D206B006B1",
"# c #14B10C350C95",
"$ c #20CA134E13E8",
"% c #216B13B71451",
"& c #230A14A51546",
"* c #2EDD2EF02D48",
"= c #3F0D25332654",
"- c #4EA039B73A18",
"; c #542530E9329F",
": c #4FBD4FDA4D09",
"> c #4FDD506B4D88",
", c #558351244ECB",
"< c #7CAF498E4BCC",
"1 c #7CF25FC15FA7",
"2 c #CB51C348BD5B",
"3 c #CF18CD55C654",
"4 c None",
/* pixels */
"4444444444444444",
"4444444444444444",
"4444444444444444",
"44444  444444444",
"44444  444444444",
"4444 ,-@@  44444",
"444 *321;& 44444",
"4444 ,>X%<#44444",
"44444  4 &= 4444",
"44444  44 O 4444",
"444444444   4444",
"444444444  44444",
"4444444444444444",
"4444444444444444",
"4444444444444444"
};
