/* XPM */
static char*CTclients[]={
"22 22 3 1",
"a c #808080",
"# c #000000",
". c None",
"......................",
"............########..",
"............########a.",
".............aaaaaaaa.",
"............########..",
"............########a.",
".............aaaaaaaa.",
".......#....########..",
".......##...########a.",
".......###...aaaaaaaa.",
".##########.########..",
".##########.########a.",
".aaaaaa###a..aaaaaaaa.",
".......##a..########..",
".......#a...########a.",
".......a.....aaaaaaaa.",
"............########..",
"............########a.",
".............aaaaaaaa.",
"............########..",
"............########a.",
".............aaaaaaaa."};
