/* XPM */
static char * CTsuppliers_xpm[] = {
"22 22 3 1",
" 	c None",
".	c #000000",
"+	c #808080",
"                      ",
"........              ",
"........+             ",
" ++++++++             ",
"........              ",
"........+             ",
" ++++++++             ",
"........      .       ",
"........+    ..       ",
" ++++++++   ...       ",
"........   .......... ",
"........+  .......... ",
" ++++++++  +...++++++ ",
"........    +..       ",
"........+    +.       ",
" ++++++++     +       ",
"........              ",
"........+             ",
" ++++++++             ",
"........              ",
"........+             ",
" ++++++++             "};
