/* XPM */
static char*CTvirtuals[]={
"16 16 6 1",
"d c #000080",
"# c #000000",
"c c #0000c0",
"a c #0000ff",
". c None",
"b c #ffffff",
"................",
"................",
"................",
"..........##....",
".........#ab##..",
"........#ababa#.",
".......#cbabad#.",
"....##.#ccbadb#.",
"...#ab##cbcdbd#.",
"..#ababa#ccbd#..",
".#ababad##cd#...",
".#ccbadb#.##....",
".#cbcdbd#.......",
".#cccbd#........",
"..##cd#.........",
"....##.........."};
