/* XPM */
static char * CVstruct_xpm[] = {
"16 16 10 1",
" 	c None",
".	c #000000",
"+	c #A4E8FC",
"@	c #24D0FC",
"#	c #001CD0",
"$	c #0080E8",
"%	c #C0FFFF",
"&	c #00FFFF",
"*	c #008080",
"=	c #00C0C0",
"     ..         ",
"    .++..       ",
"   .+++@@.      ",
"  .@@@@@#...    ",
"  .$$@@##.%%..  ",
"  .$$$##.%%%&&. ",
"  .$$$#.&&&&&*. ",
"   ...#.==&&**. ",
"   .++..===***. ",
"  .+++@@.==**.  ",
" .@@@@@#..=*.   ",
" .$$@@##. ..    ",
" .$$$###.       ",
" .$$$##.        ",
"  ..$#.         ",
"    ..          "};
