/* XPM */
static char*CVnamespace[]={
"16 16 8 1",
"f c #808080",
"b c #c0c000",
"# c #000000",
"c c #ffff00",
". c None",
"a c #585858",
"e c #a0a0a4",
"d c #ffffff",
"..###...........",
".#abc##.........",
".#daabc#####....",
".#dd.aabbccc#...",
".#d.d..abbbba...",
".#.d##..aaaab#..",
".#d.#..##.e.#ba.",
".#.#....#e.e#ba.",
".#..#...e#ee#ba.",
".#..##.f#eee#ba.",
".##f..e##eee#ba.",
"...##f.eeeee#ba.",
".....##eeeee#ba.",
".......##eee#b##",
".........##e#b##",
"...........####."};
