/* XPM */
static char * CVprotected_var_xpm[] = {
"16 16 8 1",
" 	c None",
".	c #240000",
"+	c #E0BC38",
"@	c #440000",
"#	c #000000",
"$	c #ACB4C0",
"%	c #8C748C",
"&	c #9C94A4",
" ........       ",
".++++++++.      ",
".++++++++.      ",
" ......@@       ",
"                ",
"                ",
"         ##     ",
"        #$$##   ",
"       #$$$$$#  ",
"      #$$$$$%#  ",
"      #&&$$%%#  ",
"      #&&&%%%#  ",
"      #&&&%%#   ",
"       ##&%#    ",
"         ##     ",
"                "};
