/* XPM */
static char*CVprivate_signal[]={
"16 16 8 1",
"c c #fcfc80",
"e c #f0dc5c",
"d c #e0bc38",
"b c #000000",
"# c #240000",
"a c #440000",
". c None",
"f c #ff0000",
".########.......",
"#aaaaaaaa#......",
"#aaaaaaaa#......",
".######aa.bb....",
".........bccbb..",
"........bcccccb.",
".......bcccccdb.",
"....bb.beeccddb.",
"...bccbbeeedddb.",
"..bcccccbeeddb..",
".bcccccdbbedb...",
".beeccddb.bb....",
".beeedddb.......",
".beeeddb.....ff.",
"..bbedb......ff.",
"....bb.........."};
