/* XPM */
static char*CVprotected_slot[]={
"16 16 6 1",
"c c #fcfc80",
"d c #f0dc5c",
"a c #e0bc38",
"b c #000000",
"# c #240000",
". c None",
".########.......",
"#aaaaaaaa#......",
"#aaaaaaaa#......",
".########.bb....",
".........bccbb..",
"........bcccccb.",
".......bcccccab.",
"....bb.bddccaab.",
"...bccbbdddaaab.",
"..bcccccbddaab..",
".bcccccabbdab...",
".bddccaab.bb....",
".bdddaaab.......",
".bdddaab.....bbb",
"..bbdab......b.b",
"....bb.......bbb"};
