/* XPM */
static char * CVprivate_var_xpm[] = {
"16 16 6 1",
" 	c None",
".	c #240000",
"+	c #000000",
"@	c #ACB4C0",
"#	c #8C748C",
"$	c #9C94A4",
" ........       ",
".++++++++.      ",
".++++++++.      ",
" ......++       ",
"                ",
"                ",
"         ++     ",
"        +@@++   ",
"       +@@@@@+  ",
"      +@@@@@#+  ",
"      +$$@@##+  ",
"      +$$$###+  ",
"      +$$$##+   ",
"       ++$#+    ",
"         ++     ",
"                "};
