/* XPM */
static char*inst_file[]={
"16 16 7 1",
"c c #c0c000",
"e c #808000",
". c None",
"# c #000000",
"d c #ffffc0",
"b c #ffffff",
"a c #ff0000",
"......####......",
"......#aa#......",
"......#aa#......",
"......#####.....",
".....#####b##...",
".....#aaa#bbb##.",
".....##aa#bbbbb#",
"....#b#aa#cbbbc#",
"...#dd#aa#bbbc#.",
"..#ddb#aa#dbc#..",
".#dd###aa##c#...",
".##e#aaaaa##....",
"...########.....",
".....##ec#......",
".......##.......",
"................"};
