/* XPM */
/* Drawn  by Mark Donohoe for the K Desktop Environment */
/* See http://www.kde.org */
static char*c_src[]={
"16 16 6 1",
"# c #000000",
"a c #ffffff",
"d c #808000",
"b c #c0c000",
"c c #ffffc0",
". c None",
"................",
"................",
"................",
"........###.....",
".......#aaa##...",
"......#aabaaa##.",
".....#aabaaaaaa#",
"....#acaaabaaab#",
"...#cccaaaaaab#.",
"..#ccaccaacab#..",
".#cccccacaab#...",
".##dcccccab#....",
"...##dcccb#.....",
".....##db#......",
".......##.......",
"................"};

