/* XPM */
static char*kdlg_KProgress[]={
"32 32 5 1",
"c c #c3c3c3",
"a c #0000c0",
". c None",
"# c #585858",
"b c #ffffff",
"................................",
"................................",
"................................",
"................................",
"................................",
"................................",
"................................",
"................................",
"...#########################....",
"...#########################....",
"...##aaaaaaaaaaaaaaaaaaabbb.....",
"...##aaaaaabbbaaabbbaaaabbb.....",
"...##aaaaabaaababaaabaaabbb.....",
"...##aaaaabaaababaaabaaabbb.....",
"...##aaaaaabbbaabaaabaaabbb.....",
"...##aaaaabaaababaaabaaabbb.....",
"...##aaaaabaaababaaabaaabbb.....",
"...##aaaaaabbbaaabbbaaaabbb.....",
"...##aaaaaaaaaaaaaaaaaaabbb.....",
"...##......cc.........cc........",
"...##bbbbbbbbbbbbbbbbbbbbbbb....",
"...#............................",
"................................",
"................................",
"......................c.........",
"................................",
"................................",
"................................",
"................................",
"................................",
"................................",
"................................"};
