/* XPM */
static char*kdlg_KLed[]={
"32 32 4 1",
"b c #008000",
"# c #a0a0a0",
". c #c3c3c3",
"a c #00c000",
"................................",
"................................",
"................................",
"................................",
"................................",
"................................",
"..............#####.............",
"............##aaaaa##...........",
"...........#aaabbbaaa#..........",
"..........#aabbaaaabaa#.........",
".........#aabbaaabbbba##........",
".........aabaaabbbbbbba#........",
"........#abaaabbbbbbbbba#.......",
"........#abaaabbbbbbbbba#.......",
"........#abaabbbbbbbbbba#.......",
"........#abaabbbbbbbbbba#.......",
"........##aabbbbbbbbbbba#.......",
".........#abbbbbbbbbbba#........",
".........#aabbbbbbbbbaa#........",
".........##aabbbbbbbaa#.........",
"...........#aabbbbbaa#..........",
"............##aaaaa##...........",
"..............#####.............",
".........................#......",
"................................",
"................................",
"................................",
"................................",
"................................",
"................................",
"................................",
"................................"};
