/* XPM */
static char*kdlg_QLineEdit[]={
"32 32 8 1",
"# c #808080",
"c c #a0a0a0",
"a c #c3c3c3",
"f c #cdcdcd",
"d c #000000",
". c None",
"e c #eaeaea",
"b c #ffffff",
"................................",
"................................",
"................................",
"................................",
".##############################.",
".#############################a.",
".##bbbbbbbbbbbbbbbbbbbbbbbbbbca.",
".##bdbdbdbbbdbdbdbbbdbdbdbbbbca.",
".##bbdddbbbbbdddbbbbbdddbbbbbca.",
".##bdbdbdbbbdbdbdbbbdbdbdbbbbca.",
".##bbdddbbbbbdddbbbbbdddbbbbbca.",
".##bdbdbdbbbdbdbdbbbdbdbdbbbbca.",
".##bbbbbbbbbbbbbbbbbbbbbbbeeeca.",
".##ccccccccccccccccccccccccccca.",
".fffffffffffffffffffffffffffffa.",
"................................",
"................................",
"................................",
"................................",
"................................",
"................................",
"................................",
"................................",
"................................",
"................................",
"................................",
"................................",
"................................",
"................................",
"................................",
"................................",
"................................"};
