/* XPM */
static char*kdlg_KRestrictedLine[]={
"32 32 9 1",
"# c #808080",
"c c #a0a0a0",
"a c #c3c3c3",
"g c #cdcdcd",
"d c #000000",
". c None",
"f c #eaeaea",
"e c #c00000",
"b c #ffffff",
"................................",
"................................",
"................................",
"................................",
".##############################.",
".#############################a.",
".##bbbbbbbbbbbbbbbbbbbbbbbbbbca.",
".##bdbdbdbbbdbdbdbbbdbdbdbbbbca.",
".##bbdddbbbbbdddbbbbbdddbbbbbca.",
".##bdbdbdbbbdbdbdbbbdbdbdbbbbca.",
".##bbdddddddddddbbbbbdddbbbbbca.",
".##bdbdddeeedddbdbbbdbdbdbbbbca.",
".##bbdeeeeeeeeedbbbbbbbbbbfffca.",
".##cdeeeeeeeeeeedccccccccccccca.",
".gggdeddeeeeeddedggggggggggggga.",
"...deeeddeeeddeeed..............",
"...deeeeddeddeeeed..............",
"...deeeeedddeeeeed..............",
"...deeeeedddeeeeed..............",
"...deeeeddeddeeeed..............",
"....deeddeeeddeed...............",
"....deddeeeeedded...............",
".....deeeeeeeeed................",
"......ddeeeeedd.................",
"........ddddd...................",
"................................",
"................................",
"................................",
"................................",
"................................",
"................................",
"................................"};
