/* XPM */
static char*QRadioButton[]={
"32 32 4 1",
"a c #a0a0a0",
"b c #c3c3c3",
"# c #585858",
". c None",
"................................",
"................................",
"................................",
"................................",
"................................",
"................................",
"................................",
"................................",
"................................",
"................................",
"...............#................",
"..............###...............",
".............##a##..............",
"............##aaa##.............",
"...........##aaaaa##............",
"..........##aaaaaaa##...........",
"..........bbaaaaaaabb...........",
"...........bbaaaaabb............",
"............bbaaabb.............",
".............bbabb..............",
"..............bbb...............",
"...............b................",
"................................",
"................................",
"................................",
"................................",
"................................",
"................................",
"................................",
"................................",
"................................",
"................................"};
