/* XPM */
static char*kdlg_KSeparator[]={
"32 32 5 1",
"a c #808080",
"c c #a0a0a0",
"# c #c3c3c3",
". c None",
"b c #dcdcdc",
"................................",
"................................",
"................................",
"................................",
"................................",
"................................",
"................................",
"................................",
"....#######################.....",
"....#######################.....",
"....#######################.....",
"...########################.....",
"...##########################...",
".....aaaaaaaaaaaaaaaaaaaaa......",
"....aaaaaaaaaaaaaaaaaaaaaaa.....",
"...abbbbbbbbbbbbbbbbbbbbbbba....",
"...abbbbbbbbbbbbbbbbbbbbbbba....",
"....cccccccccccccccccccccccc....",
"................................",
"................................",
"................................",
"................................",
"................................",
"................................",
"................................",
"................................",
"................................",
"................................",
"................................",
"................................",
"................................",
"................................"};
