/* XPM */
static char*kdlg_KColorButton[]={
"32 32 5 1",
"a c #a0a0a0",
"b c #000000",
"# c #303030",
". c None",
"c c #ff0000",
"................................",
"................................",
"................................",
"................................",
"................................",
"................................",
"................................",
"................................",
".##############################.",
".#aaaaaaaaaaaaaaaaaaaaaaaaaaaa#.",
".#aaaaaaaaaaaaaaaaaaaaaaaaaaab#.",
".#a.ccccccccccccccccccccccccbb#.",
".#aaccccccccccccccccccccccccbb#.",
".#aaccccccccccccccccccccccccbb#.",
".#aaccccccccccccccccccccccccbb#.",
".#aaccccccccccccccccccccccccbb#.",
".#aaccccccccccccccccccccccccbb#.",
".#aaccccccccccccccccccccccccbb#.",
".#aaccccccccccccccccccccccccbb#.",
".#aaccccccccccccccccccccccccbb#.",
".#abbbbbbbbbbbbbbbbbbbbbbbbbbbb.",
".##############################.",
"................................",
"................................",
"................................",
"................................",
"................................",
"................................",
"................................",
"................................",
"................................",
"................................"};
