/* XPM */
static char*QLineEdit[]={
"32 32 31 1",
"j c #656565",
"k c #e1e1e1",
"z c #858585",
"h c #c3c3c3",
"c c #343434",
"r c #cbcbcb",
"d c #fefefe",
"y c #adadad",
"l c #ebebeb",
"t c #5c5c5c",
"o c #515151",
"a c #cdcdcd",
"p c #d5d5d5",
"B c #848484",
"g c #333333",
"s c #717171",
"A c #afafaf",
"m c #666666",
"w c #fdfdfd",
"e c #303030",
"u c #151515",
"f c #eaeaea",
"C c #d7d7d7",
"n c #0a0a0a",
"x c #353535",
"q c #cccccc",
"# c #585858",
". c None",
"i c #c1c1c1",
"v c #686868",
"b c #ffffff",
"................................",
"................................",
"................................",
"................................",
"................................",
"................................",
"................................",
"................................",
"................................",
"................................",
"................................",
".##############################.",
".#############################a.",
".##bbbbbbcbbbbbbbbdefgbbbbbffha.",
".##bbbbbbcijkbieebdefgbljmbffha.",
".##bbbbbbn#aopeqredefglslltffha.",
".##bbbbbbcbbgruccedefglvbwxffha.",
".##bbbbbbcbbgrebdydefglvbwxffha.",
".##bbbbbbcbbgfzeeAdefgfBjjAffha.",
".##bbbbbbbCbbCblaabllCblaafffha.",
".#zhhhhhhhhhhhhhhhhhhhhhhhhhhha.",
".aaaaaaaaaaaaaaaaaaaaaaaaaaaaaa.",
"................................",
"................................",
"................................",
"................................",
"................................",
"................................",
"................................",
"................................",
"................................",
"................................"};
