/* XPM */
static char*kdlg_KDateTable[]={
"32 32 6 1",
"c c #808080",
"d c #c3c3c3",
"b c #000080",
"# c #000000",
". c None",
"a c #ffffff",
"................................",
"................................",
"................................",
"................................",
"..############################..",
"..#aaaaaaaaaaaaaaaaaaaaaaaaaa#..",
"..#abbaabbaabbaabbaabbaabbaaa#..",
"..#aaaaaaaaaaaaaaaaaaaaaaaaaa#..",
"..#a########################a#..",
"..#aaaaaaaaaaaaaaaaaaaaaaaaaa#..",
"..#aaaaaaaaaaaaaaaaaaaaaaaaaa#..",
"..#accaaccaaccaaccaaccaaccaaa#..",
"..#aaaaaaaaaaaaaaaaaaaaaaaaaa#..",
"..#aaaaaaaaaaaaaaaaaaaaaaaaaa#..",
"..#accaaccaaccaaccaaccaaccaaa#..",
"..#aaaaaaaaaaaaaaaaaaaaaaaaaa#..",
"..#aaaaaaaaaaaaaaaaaaaaaaaaaa#..",
"..#accaaccaaccaaccaaccaaccaaa#..",
"..#aaaaaaaaaaaaaaaaaaaaaaaaaa#..",
"..#aaaaaaaaaaaaaaaaaaaaaaaaaa#..",
"..#accaaccaaccaaccaaccaaccaaa#..",
"..#aaaaaaaaaaaaaaaaaaaaaaaaaa#..",
"..#aaaaaaaaaaaaaaaaaaaaaaaaaa#..",
"..#aaaaaaaaaaaaaaaaaaaaaaaaaa#..",
"..#aaaaaaaaa####aa######aaaaa#..",
"..#aaaaaaaaaaaaaaaaaaaaaaaaaa#..",
"..############################..",
"................................",
"..............................d.",
"..............................dd",
".............................ddd",
".............................ddd"};
