/* XPM */
static char*QLCDNumer[]={
"32 32 6 1",
"c c #808080",
"b c #a0a0a0",
"d c #c3c3c3",
"a c #585858",
". c None",
"# c #dcdcdc",
"................................",
".##############################.",
".#aaaaaaaaaaaaaaaaaaaaaaaaaaaaa.",
".#abbbbbbbbbbbbbbbbbbbbbbbbbb#a.",
".#abbcddddddddbbbbcddddddddbb#a.",
".#abdbabbbbbbcdbbdbabbbbbbcdb#a.",
".#abdbbaaaaacdabbdbbaaaaacdab#a.",
".#abdbabbbbbdbabbdbabbbbbdbab#a.",
".#abdbabbbbbdbabbdbabbbbbdbab#a.",
".#abdbabbbbbdbabbdbabbbbbdbab#a.",
".#abdbabbbbbdbabbdbabbbbbdbab#a.",
".#abdbabbbbbdbabbdbabbbbbdbab#a.",
".#abdbabbbbbdbabbdbabbbbbdbab#a.",
".#abdbabbbbbcbabbdbabbbbbcbab#a.",
".#abdadddddddcabbdadddddddcab#a.",
".#ababbbbbbbbadbbabbbbbbbbadb#a.",
".#abbbaaaaaaadabbbbaaaaaaadab#a.",
".#abbbbbbbbbdbabbbbbbbbbbdbab#a.",
".#abbbbbbbbbdbabbbbbbbbbbdbab#a.",
".#abbbbbbbbbdbabbbbbbbbbbdbab#a.",
".#abbbbbbbbbdbabbbbbbbbbbdbab#a.",
".#abbbbbbbbbdbabbbbbbbbbbdbab#a.",
".#abbbbbbbbbdbabbbbbbbbbbdbab#a.",
".#abbbbbbbbbdbabbbbbbbbbbdbab#a.",
".#abbbddddddcbabbbbddddddcbab#a.",
".#abbdbbbbbbbcabbbdbbbbbbbcab#a.",
".#abdaaaaaaaaacbbdaaaaaaaaacb#a.",
".#abbbbbbbbbbbbbbbbbbbbbbbbbb#a.",
".#abbbbbbbbbbbbbbbbbbbbbbbbbb#a.",
".#a###########################a.",
".#aaaaaaaaaaaaaaaaaaaaaaaaaaaaa.",
"................................"};
