/* XPM */
static char*kdlg_KKeyButton[]={
"32 32 4 1",
"# c #808080",
". c None",
"b c #585858",
"a c #dcdcdc",
"................................",
"................................",
"................................",
"................................",
"................................",
"................................",
"................................",
"....#######################.....",
"...#aaaaaaaaaaaaaaaaaaaaaa##....",
"...#a####################a##b...",
"...#a#aaaaaaaaaaaaaaaaaa#a##b...",
"...#a#aaaaaaaaaaaaaaaaaa#a##b...",
"...#a#aaa##aaa#aaa#####a#a##b...",
"...#a#aa#aa#aa#aaaaa#aaa#a##b...",
"...#a#aa#aa#aa#aaaaa#aaa#a##b...",
"...#a#aa####aa#aaaaa#aaa#a##b...",
"...#a#aa#aa#aa#aaaaa#aaa#a##b...",
"...#a#aa#aa#aa####aa#aaa#a##b...",
"...#a#aaaaaaaaaaaaaaaaaa#a##b...",
"...#a#aaaaaaaaaaaaaaaaaa#a##b...",
"...#a#aaaaaaaaaaaaaaaaaa#a##b...",
"...#a####################a##b...",
"...#aaaaaaaaaaaaaaaaaaaaaa##b...",
"....######################..b...",
".....bbbbbbbbbbbbbbbbbbbbbb.....",
"................................",
"................................",
"................................",
"................................",
"................................",
"................................",
"................................"};
