/* XPM */
static char*kdlg_KLedLamp[]={
"32 32 3 1",
". c #c3c3c3",
"a c #00ff00",
"# c #00c000",
"................................",
"................................",
"................................",
"................................",
"................................",
"................................",
"..............#####.............",
".............########...........",
"...........###aaaaa###..........",
"..........##aaaaaaaaa##.........",
".........##aaaaaaaaaaa##........",
".........##aaaaaaaaaaa##........",
"........##aaaaaaaaaaaaa##.......",
"........##aaaaaaaaaaaaa##.......",
"........##aaaaaaaaaaaaa##.......",
"........##aaaaaaaaaaaaa##.......",
"........##aaaaaaaaaaaaa##.......",
".........##aaaaaaaaaaa##........",
".........##aaaaaaaaaaa##........",
"..........##aaaaaaaaa##.........",
"...........###aaaaa###..........",
"............########............",
"..............#####.............",
"................................",
"................................",
"................................",
"................................",
"................................",
"................................",
"................................",
"................................",
"................................"};
