/* XPM */
static char*kdlg_QGroupBox[]={
"32 32 5 1",
"c c #808080",
"b c #c3c3c3",
". c None",
"a c #585858",
"# c #dcdcdc",
"................................",
"................................",
"................................",
"................................",
"................................",
"..#####ababba#################..",
"..#aaa#aabbab#aaaaaaaaaaaaaaac..",
"..#a###abbaba################c..",
"..#a#........................c..",
"..#a#........................c..",
"..#a#........................c..",
"..#a#........................c..",
"..#a#........................c..",
"..#a#........................c..",
"..#a#........................c..",
"..#a#........................c..",
"..#a#........................c..",
"..#a#........................c..",
"..#a#........................c..",
"..#a#........................c..",
"..#a#........................c..",
"..#a#........................c..",
"..#a#........................c..",
"..#a#........................c..",
"..#a#........................c..",
"..#a#........................c..",
"..#ccccccccccccccccccccccccccc..",
"................................",
"................................",
"................................",
"................................",
"................................"};
