/* XPM */
static char*kdlg_QSpinBox[]={
"32 32 8 1",
"a c #808080",
"c c #c3c3c3",
"d c #cdcdcd",
"e c #000000",
". c None",
"# c #585858",
"f c #dcdcdc",
"b c #ffffff",
"................................",
"................................",
"................................",
"................................",
"................................",
"................................",
"................................",
"................................",
"..###########################a..",
"..###########################a..",
"..##bbbbbbbbbbbbbbbaac......#a..",
"..##bbbbbbbbbbbbbbbaac......#a.d",
"..##bbbbbbbbbbbbbbbaac..e...#a.d",
"..##bbbbbbbbbbbbbbbaac.eee..#a.d",
"..##bbbbbbbbbbbbbbbaa.eeeee.#a.d",
"..##bbbbbbbbbbbbbbbaa.......#a.d",
"..##bbbbbbbbbbbbbbbaa.......#a.d",
"..##bbbbbbbbbbbbbbbaa.......#a.d",
"..##bbbbbbbbbbbbbbbaa.eeeee.#a.d",
"..##bbbbbbbbbbbbbbbaa..eee..#a.d",
"..##bbbbbbbbbbbbbbbaa...e...#a..",
"..##bbbbbbbbbbbbbbbaa.......#a..",
"..##bbbbbbbbbbbbbbbaa.......#a..",
"..##fffffffffffffffaa########a..",
"..#ffffffffffffffffaa########a..",
"................................",
"................................",
"................................",
"................................",
"................................",
"................................",
"................................"};
