/* XPM */
static char*kdlg_KDatePicker[]={
"32 32 7 1",
"d c #808080",
"e c #c3c3c3",
"a c #000080",
"# c #000000",
". c None",
"b c #dcdcdc",
"c c #ffffff",
"................................",
"................................",
"..############################..",
"..#aaaaaaaaaaaaaaaaaaaaaaaaaa#..",
"..#abbbabbbaaaaaaaaaabbbabbba#..",
"..#ab#bab#baaacccccaab#bab#ba#..",
"..#abbbabbbaaaaaaaaaabbbabbba#..",
"..#aaaaaaaaaaaaaaaaaaaaaaaaaa#..",
"..#cccccccccccccccccccccccccc#..",
"..#caaccaaccaaccaaccaaccaaccc#..",
"..#cccccccccccccccccccccccccc#..",
"..#c########################c#..",
"..#cccccccccccccccccccccccccc#..",
"..#cccccccccccccccccccccccccc#..",
"..#cddccddccddccddccddccddccc#..",
"..#cccccccccccccccccccccccccc#..",
"..#cccccccccccccccccccccccccc#..",
"..#cddccddccddccddccddccddccc#..",
"..#cccccccccccccccccccccccccc#..",
"..#cccccccccccccccccccccccccc#..",
"..#cddccddccddccddccddccddccc#..",
"..#cccccccccccccccccccccccccc#..",
"..#cccccccccccccccccccccccccc#..",
"..#cddccddccddccddccddccddccc#..",
"..#cccccccccccccccccccccccccc#..",
"..#cccccccccccccccccccccccccc#..",
"..#cccccccccccccccccccccccccc#..",
"..#ccccccccc####cc######ccccc#..",
"..#cccccccccccccccccccccccccc#e.",
"..############################ee",
".............................eee",
".............................eee"};
