/* XPM */
static char*kdlg_QListView[]={
"32 32 6 1",
"a c #808080",
"c c #c3c3c3",
"d c #808000",
"# c #000000",
". c None",
"b c #ffffff",
"................................",
"................................",
"................................",
"...##########################...",
"...#..........ab.....ab.....#...",
"...#c#c#c#ccccabc#c#cabc#c#.#...",
"...#c#c#c#ccccabc#c#cabc#c#.#...",
"...#.cccccccccabcccccabcccc.#...",
"...#.bbbbbbbbbbbbbbbbbbbbbb.#...",
"...#.bbbbbbbbbbbbbbbbbbbbbb.#...",
"...#.bdddbbbbbbb#####bbbbbb.#...",
"...#.bdddbbbbbbbbbbbbbbbbb..#...",
"...#.bbbbbbbbbbbbbbbbbbbbb..#...",
"...#.bbbbbbbbbbbbbbbbbbbbbb.#...",
"...#.bdddbbbbbbb#####bbbbbb.#...",
"...#.bdddbbbbbbbbbbbbbbbbbb.#...",
"...#.bbbbbbbbbbbbbbbbbbbbbb.#...",
"...#.bbbbbbbbbbbbbbbbbbbbbb.#...",
"...#.bdddbbbbbbb#####bbbbbb.#...",
"...#.bdddbbbbbbbbbbbbbbbbbb.#...",
"...#.bbbbbbbbbbbbbbbbbbbbbb.#...",
"...#.bbbbbbbbbbbbbbbbbbbbbb.#...",
"...#.bdddbbbbbbb#####bbbbbb.#...",
"...#.bdddbbbbbbbbbbbbbbbbbb.#...",
"...#.bbbbbbbbbbbbbbbbbbbbbb.#...",
"...#.bbbbbbbbbbbbbbbbbbbbbb.#...",
"...#.bbbbbbbbbbbbbbbbbbbbbb.#...",
"...#........................#...",
"...##########################...",
"................................",
"................................",
"................................"};
