/* XPM */
static char*kdlg_KTreeList[]={
"32 32 6 1",
"# c #808080",
"d c #a0a0a0",
"c c #808000",
". c None",
"b c #585858",
"a c #ffffff",
"................................",
"................................",
"................................",
".....######################.....",
".....#aaaaaaaaaaaaaaaaaabb#.....",
".....#aaaaaaaaaaaaaaaaaabb#.....",
".....#aacccaaaaaaaaaaaaaaa#.....",
".....#aacccaaaaaaaaaaaaaaa#.....",
".....#aaadaaaaaaaaaaaaaaaa#.....",
".....#aaadaaaaaaaaaaaaaaaa#.....",
".....#aacccaaaaaaaaaaaaaaa#.....",
".....#aaccc##a##aaaaaaaadd#.....",
".....#aaadaaaaadaaaaaaaadd#.....",
".....#aaadaaaacccaaaaaaadd#.....",
".....#aaadaaaacccaaaaaaadd#.....",
".....#aaadaaaaa.aaaaaaaaaa#.....",
".....#aaadaaaaa.aaaaaaaaaa#.....",
".....#aaadaaaacccaaaaaaaaa#.....",
".....#aaadaaaacccaaaaaaaaa#.....",
".....#aaadaaaaa.aaaaaaaaaa#.....",
".....#aaadaaaaa.aaaaaaaaaa#.....",
".....#aaadaaaacccaaaaaaaaa#.....",
".....#aaadaaaacccaaaaaaaaa#.....",
".....#aaaaaaaaaaaaaaaaaabb#.....",
".....#aaaaaaaaaaaaaaaaaabb#.....",
".....#.................#..#.....",
".....#bb.......ddddddbb...#.....",
".....#bb.......ddddddbb...#.....",
".....######################.....",
"................................",
"................................",
"................................"};
