/* XPM */
static char*QCheckBox[]={
"32 32 4 1",
"b c #a0a0a0",
"a c #c3c3c3",
"# c #585858",
". c None",
"................................",
"................................",
"................................",
"................................",
"................................",
"................................",
"................................",
"................................",
"................................",
"................................",
"..........##########............",
"..........#########a............",
"..........##bbbbbbaa............",
"..........##bbbbbbaa............",
"..........##bbbbbbaa............",
"..........##bbbbbbaa............",
"..........##bbbbbbaa............",
"..........##bbbbbbaa............",
"..........##aaaaaaaa............",
"..........#aaaaaaaaa............",
"................................",
"................................",
"................................",
"................................",
"................................",
"................................",
"................................",
"................................",
"................................",
"................................",
"................................",
"................................"};
