/* XPM */
static char*kdlg_QMultiLineEdit[]={
"32 32 33 1",
"# c #808080",
"j c #656565",
"k c #e1e1e1",
"E c #a0a0a0",
"A c #858585",
"b c #c3c3c3",
"d c #343434",
"s c #cbcbcb",
"e c #fefefe",
"z c #adadad",
"l c #ebebeb",
"u c #5c5c5c",
"p c #515151",
"o c #cdcdcd",
"q c #d5d5d5",
"C c #848484",
"h c #333333",
"t c #717171",
"B c #afafaf",
"m c #666666",
"x c #fdfdfd",
"f c #303030",
". c None",
"v c #151515",
"g c #eaeaea",
"D c #d7d7d7",
"n c #0a0a0a",
"y c #353535",
"r c #cccccc",
"c c #585858",
"i c #c1c1c1",
"w c #686868",
"a c #ffffff",
"................................",
"................................",
"................................",
"..############################..",
"..#aaaaaaaaaaaaaaaaaaaaaaabcc#..",
"..#adaaaaaaaaefghaaaaaaaaabcc#..",
"..#adijkaiffaefghaljmaaaaabbb#..",
"..#ancopqfrsfefghltlluaaaabbb#..",
"..#adaahsvddfefghlwaxyaaaabbb#..",
"..#adaahsfaezefghlwaxyaaaabbb#..",
"..#adaahgAffBefghgCjjBaaaabbb#..",
"..#aaDaaDalooallDaloogaaaabEE#..",
"..#aaaaaaaaaaaaaaaaaaaaaaabEE#..",
"..#aaaaaaaaaaaaaaaaaaaaaaabEE#..",
"..#aaaaaaaaaaaaaaaaaaaaaaabEE#..",
"..#aaaaaaaaaaaaaaaaaaaaaaabbb#..",
"..#aaaaaaaaaaaaaaaaaaaaaaabbb#..",
"..#aaaaaaaaaaaaaaaaaaaaaaabbb#..",
"..#aaaaaaaaaaaaaaaaaaaaaaabbb#..",
"..#aaaaaaaaaaaaaaaaaaaaaaabbb#..",
"..#aaaaaaaaaaaaaaaaaaaaaaabbb#..",
"..#aaaaaaaaaaaaaaaaaaaaaaabbb#..",
"..#aaaaaaaaaaaaaaaaaaaaaaabbb#..",
"..#aaaaaaaaaaaaaaaaaaaaaaabcc#..",
"..#aaaaaaaaaaaaaaaaaaaaaaabcc#..",
"..#bbbbbbbbbbbbbbbbbbbbbbb#bb#..",
"..#ccbbbbbbbEEEEEEbbbbbbccbbb#..",
"..#ccbbbbbbbEEEEEEbbbbbbccbbb#..",
"..############################..",
"................................",
"................................",
"................................"};
