/* XPM */
static char*kdlg_QProgressBar[]={
"32 32 5 1",
"c c #000000",
"a c #0000c0",
". c None",
"# c #585858",
"b c #ffffff",
"................................",
"................................",
"................................",
"................................",
"................................",
"................................",
"................................",
"................................",
"...#########################....",
"...#########################....",
"...##aaaaaaaaaaabbbbbbbbbbb.....",
"...##aaaaaaaaaaabbbbbbbbbbb.....",
"...##aaaaaaaaaaabbbbbbbbbbb.....",
"...##aaaaaabbbbabbbcccbbbbb.....",
"...##aaaaaabaaaabbbcbcbbbbb.....",
"...##aaaaaabaaaabbcbbbcbbbb.....",
"...##aaaaaaabbaabbcbbbcbbbb.....",
"...##aaaaaaaaababbcbbbcbbbb.....",
"...##aaaaaaaaababbbcbcbbbbb.....",
"...##aaaaaabbbbabbbcccbbbbb.....",
"...##aaaaaaaaaaabbbbbbbbbbb.....",
"...##aaaaaaaaaaabbbbbbbbbbb.....",
"...##...........................",
"...##bbbbbbbbbbbbbbbbbbbbbbb....",
"...#............................",
"................................",
"................................",
"................................",
"................................",
"................................",
"................................",
"................................"};
