/* XPM */
static char*kdlg_QComboBox[]={
"32 32 7 1",
"d c #a0a0a0",
"b c #c3c3c3",
"a c #000000",
". c None",
"# c #585858",
"e c #dcdcdc",
"c c #ffffff",
"................................",
"................................",
"................................",
"................................",
"................................",
"................................",
"..###########################abb",
"..###########################ab.",
"..##ccccccccccccccdde..bb..b#ab.",
"..##ccccccccccccccdde......b#ab.",
"..##ccccccccccccccdde......b#ab.",
"..##ccccccccccccccdde..b...b#ab.",
"..##ccccccccccccccdde......b#ab.",
"..##ccccccccccccccdde......b#ab.",
"..##ccccccccccccccddaaaaaaab#ab.",
"..##ccccccccccccccddeaaaaa.b#ab.",
"..##ccccccccccccccdde.aaa..b#ab.",
"..##ccccccccccccccdde..a...b#ab.",
"..##ccccccccccccccdde......b#ab.",
"..##ccccccccccccccdde......b#ab.",
"..##ccccccccccccccdde......b#ab.",
"..##ccccccccccccccdde......b#ab.",
"..##ccccccccccccccdde########ab.",
"..#dddddddddddddddd##########ab.",
"..#.............................",
"................................",
"................................",
"................................",
"................................",
"................................",
"................................",
"................................"};
