/* XPM */
static char*mini[]={
"16 14 5 1",
"b c #7f7f7f",
"# c #000000",
"c c #303030",
". c None",
"a c #ffffff",
"................",
"..###...........",
"..#aa##.........",
"..#abaa#####c##.",
"..#aabba#aaaaa#b",
"..#abaaa#abbba#b",
"..#aabba#aaaaa#b",
"..#abaaa#abbba#b",
"..#aabba#aaaaa#b",
"..#aaaaa#abbba#b",
"..###aaa#aaaaa#b",
"..bbb##a#aaaaa#b",
"..bbbbb########b",
"..bbbbbbbbbbbbbb"};
