/* XPM */
const char*checked_xpm[]={
"11 11 3 1",
"a c #000000",
"# c #ffffff",
". c #808080",
"...........",
".#########.",
".#######a#.",
".######aa#.",
".#a###aaa#.",
".#aa#aaa##.",
".#aaaaa###.",
".##aaa####.",
".###a#####.",
".#########.",
"..........."};
