/* XPM */
const char*new_up_xpm[]={
"14 12 2 1",
"# c #000000",
". c None",
"......#.......",
".....###......",
"....#####.....",
"...#######....",
"..#########...",
".###########..",
".....###......",
".....###......",
".....###......",
".....###......",
"....###.......",
"...###........"};
