/* XPM */
const char*new_del_xpm[]={
"14 12 3 1",
". c #800000",
"# c #FFFFFF",
"a c None",
"..#aaaaaaaa..#",
"....#aaaaa..#a",
"a....#aaa..#aa",
"aaa...#a.#aaaa",
"aaaa.....#aaaa",
"aaaaa...#aaaaa",
"aaaa.....#aaaa",
"aaa...#a..#aaa",
"aa...#aaa..#aa",
"a...#aaaaa.#aa",
"a...#aaaaaa.#a",
"aa.#aaaaaaaa.#"};
