/* XPM */
const char*new_new_xpm[]={
"14 12 5 1",
"c c #000000",
"b c #ffff00",
"a c #ffffff",
". c #808080",
"# c None",
".##.a#.b######",
"#.#.b.bc#c#c##",
"#b.ba....###c#",
"...#bb########",
"#b#.#b.#####c#",
".c#.b#########",
"###.########c#",
"#c############",
"############c#",
"#c############",
"############c#",
"#c#c#c#c#c#c##"};
