/* XPM */
const char*notchecked_xpm[]={
"11 11 3 1",
". c #808080",
"a c #303030",
"# c #ffffff",
"...........",
".#########.",
".#a#a#a#a#.",
".##a#a#a##.",
".#a#a#a#a#.",
".##a#a#a##.",
".#a#a#a#a#.",
".##a#a#a##.",
".#a#a#a#a#.",
".#########.",
"..........."};
