/* XPM */
const char*unchecked_xpm[]={
"11 11 2 1",
"# c #ffffff",
". c #808080",
"...........",
".#########.",
".#########.",
".#########.",
".#########.",
".#########.",
".#########.",
".#########.",
".#########.",
".#########.",
"..........."};
