/* XPM */
static char*unchecked[]={
"16 16 4 1",
"# c #000000",
"+ c #ffffff",
"D c #000000",
". c None",
"................",
"............++++",
"..++++++++++DDD+",
"..+########DDD+.",
"..+#++++++DDD+..",
"+DDD+...+DDD#+..",
"++DDD+++DDD+#+..",
"..+DDDDDDD++#+..",
"..+#DDDDD+.+#+..",
"..+#++DD+..+#+..",
"..+#+++++..+#+..",
"..+#++++++++#+..",
"..+##########+..",
"..++++++++++++..",
"................",
"................"};
