/* XPM */
static char*classwiz[]={
"22 22 7 1",
"b c #000080",
"d c #000000",
"c c #ffff00",
". c None",
"a c #dcdcdc",
"# c #ffffff",
"e c #ff0000",
"......................",
"....#.................",
"..#aba#...............",
"..b..#b...............",
".#.bcb.#..............",
".b.cbc.b..............",
"..#bcb#c..............",
"..b.#cccd.............",
"....bccd#d............",
"......d###d...........",
".......d#eed..........",
"........deeed.........",
".........deeed........",
"..........deedd.......",
"...........dd##d......",
"............d##d......",
".............dd.......",
"......................",
"......................",
"......................",
"......................",
"......................"};
