/* XPM */
static char*classwiz[]={
"22 21 6 1",
"b c #000080",
"d c #000000",
"c c #ffff00",
". c None",
"a c #dcdcdc",
"# c #ffffff",
"......................",
"....#.................",
"..#aba#...............",
"..b..#b...............",
".#.bcb.#..............",
".b.cbc.b..............",
"..#bcb#...............",
"..b.#.b.d.............",
"....b..d#d............",
"......d###d...........",
".......d#ddd..........",
"........ddddd.........",
".........ddddd........",
"..........ddddd.......",
"...........dd##d......",
"............d##d......",
".............dd.......",
"......................",
"......................",
"......................",
"......................"};
