/* XPM */
static char*compfile[]={
"22 22 5 1",
"c c #bebebe",
"a c #000080",
"# c #000000",
". c None",
"b c #ffffff",
"......................",
"......................",
"......................",
".........########.....",
"...aa....#bbbbbb##....",
"...aa....#bbbbbb#b#...",
"...aa....#bbbbbb####..",
"...aa....#b####bbbb#..",
"...aa....###bbbbbbb#..",
"...aa....##bbb#bb#b#..",
"...aa....##bb#######..",
"...aa....##bbb#bb#b#..",
"...aa....###bbbbbbb#..",
"...aa....#b####bbbb#..",
".aaaaaa..#bbbbbbbbb#..",
".aaaaaac.#bbbbbbbbb#..",
"..aaaac..#bbbbbbbbb#..",
"...aac...#bbbbbbbbb#..",
"....c....###########..",
"......................",
"......................",
"......................"};
