/* XPM */
static char*file_properties[]={
"22 22 9 1",
"a c #808080",
"c c #a0a0a0",
"d c #000080",
"b c #000000",
". c None",
"# c #0000ff",
"e c #585858",
"g c #dcdcdc",
"f c #ffffff",
"......................",
".....................#",
"...........abbbbbc###d",
"..........aecccccc#bdd",
".........aea.......bdd",
"........aeaea......add",
"..bbbbbaeaeaa......add",
"..bfffaeaeeaeaa...cbdd",
"..bffaeaeeebeaeecccbdd",
"..bffeaeefceaeeebb#bdd",
"..bffeeefffeeecffbc##d",
"..bfffffffffeefffb...#",
"..bffffffffffffffb....",
"..bffbbbffbbbbbffb....",
"..bffaaaffaaaaaffb....",
"..bffgggffgggggffb....",
"..bffbbbffbbbbbffb....",
"..bffaaaffaaaaaffb....",
"..bffffffffffffffb....",
"..bbbbbbbbbbbbbbbb....",
"......................",
"......................"};
