/* XPM */
static char*generate[]={
"22 22 7 1",
"e c #bebebe",
"c c #a6a6be",
"# c #000080",
"b c #0000be",
"a c #000000",
". c None",
"d c #ffffff",
"......######..........",
".....########.........",
"....##....####........",
"...##......###........",
"...##.......###.......",
"...##.....#######.....",
"...###.....#####......",
"....aa......###.......",
"....abaa....a#aaaaaa..",
"aa..acbbaa..adddddada.",
"abaaaddcbba.adddddaaaa",
"acbbaadddca.adaaadddda",
"addcbbaadda.aaddddddda",
"addddcbbaaa.aaddaddada",
"addddddcbaa.aadaaaaaaa",
"addddddddaa.aaddaddada",
"aaeddddddaa.aaddddddda",
"..aaeddddaa.adaaadddda",
"....aaedda..adddddddda",
"......aaea..adddddddda",
"........aa..adddddddda",
"............aaaaaaaaaa"};
