/* XPM */
static char*generate[]={
"22 22 62 1",
"I c #ffffd8",
"B c #d9d9d9",
"r c #808080",
"q c #fbfbf9",
"m c #e9e9e9",
"F c #ffffc2",
"H c #ffffd3",
"n c #f1f1f1",
"O c #f3f3ae",
"D c #d6d6d6",
"X c #a0a024",
"l c #f9f9f9",
"c c #a0a0a0",
"C c #dedede",
"M c #8d8d06",
"L c #fffff0",
"j c #f6f6f6",
"2 c #6c6c00",
"W c #9d9d05",
"# c #c0c0c0",
"U c #ffffd4",
"g c #fefefe",
"s c #808000",
"0 c #f8f8b9",
"Y c #dbdb87",
"Q c #ffffeb",
"i c #f3f3f3",
"d c #d8d8d8",
"k c #fbfbfb",
"t c #a8a89e",
"y c #e0e0e0",
"x c #ffffe0",
"4 c #acac29",
"P c #ffffd5",
"e c #f0f0f0",
"S c #b0b030",
"A c #d5d5d5",
"v c #e1e1de",
"f c #f8f8f8",
"3 c #909000",
"5 c #c7c76c",
"J c #ffffec",
"7 c #a4a400",
"Z c #f5f5b1",
"1 c #9f9f56",
"N c #dede8c",
"6 c #9b9b4a",
"E c #fdfdbf",
"K c #ffffdc",
"u c #cfcfcf",
"G c #ffffc0",
"p c #fafafa",
". c None",
"a c #585858",
"o c #efefef",
"R c #ffffdd",
"w c #9b9b62",
"h c #f7f7f7",
"z c #dcdcdc",
"b c #ffffff",
"V c #9e9e66",
"T c #c8c86c",
"......######..........",
".....########.........",
"....##....####........",
"...##.aaaaaaaaaaa.....",
"...##.abbbbbbbbba.....",
"...##.abcccccccda.....",
"...###abcbeefgcha.....",
"....##abcbbijkclac....",
"....##abccccccchamcc..",
"##..##abjbnopgbbambqc.",
"######abrrrrrrrjambss#",
"#####tabrrrrrrruavwss#",
"#####xabyzAdBCDCasss.#",
"####EFaaaaaaaaaaass###",
"###GGGGGHIJKGGLGss####",
"##MsNOGGGHPQRGGss#####",
"#.sssSTGGGGGUVss######",
"...sssWXYZG01sc#######",
"....#cs23456sc########",
"......csss7sc#########",
"........css.c#########",
".........c..##########"};
