/* XPM */
static char*filegraph[]={
"22 22 7 1",
"# c #c3c3c3",
"c c #000080",
"b c #00ffff",
"a c #000000",
". c None",
"d c #585858",
"e c #c000c0",
"......................",
"......................",
"......................",
"....###.......a.......",
"...aaaaa.....aba......",
"...accca....daaba.....",
"...acccaaaaaaaaaa.....",
"...accca...a..dad.....",
"...aaaaa...a..........",
"...........a..........",
"...........a..........",
"...........a..........",
"...........a.da.......",
"...........a.aea......",
"...........a.aaea.....",
"...........aaaaaa.....",
"..............dad.....",
"......................",
"......................",
"......................",
"......................",
"......................"};
