/* XPM */
static char*grep[]={
"22 22 8 1",
"d c #c0c000",
"# c #808000",
"a c #000000",
"c c #ffff00",
". c None",
"f c #ffffc0",
"e c #585858",
"b c #ffffff",
"......................",
"......................",
"...######a............",
"..#bccccc#a...........",
".#bdddddddd#######....",
".#bbbbbbbbbbbbbbb#e...",
".#bffffffffffcccc#e...",
".#bfffffaaffcaacc#e...",
".#bfffffaacccaacc#e...",
".#bfffffaacccaacc#e...",
".#bfffaaaaaaaaaaa#e...",
".#bfccaaaaaaaaaaa#e...",
".#bcccabaaaaabaaa#e...",
".#####abaaaaabaaa#e...",
"..eeeeaaaaaaaaaaae....",
"......aaaaaaaaaaa.....",
"......aaaa...aaaa.....",
"......abaa...abaa.....",
"......aaaa...aaaa.....",
"......................",
"......................",
"......................"};
