/* XPM */
static char*indent[]={
"22 22 4 1",
"a c #000080",
"# c #000000",
"b c #0000c0",
". c None",
"......................",
"...........##.........",
"...........##.........",
"......................",
"...#####...##########.",
"...#####...##########.",
"......................",
"....a.................",
"....aa.....#########..",
"bbbbaaa....#########..",
"aaaaaaaa..............",
"bbbbaaa...............",
"....aa.....#######....",
"....a......#######....",
"......................",
"......................",
"...#####...##########.",
"...#####...##########.",
"......................",
"...#####...###........",
"......................",
"......................"};
