/* XPM */
static char*lookup[]={
"22 22 6 1",
"# c #000000",
". c None",
"d c #585858",
"a c #a0a0a4",
"b c #dcdcdc",
"c c #ffffff",
"......................",
"......................",
"......####............",
"....a#bccb#a..........",
"....#ccaacc#a.........",
"...#bcaccccb#.........",
"...#cccccccc#.........",
"...#cccccccc#.........",
"..##bccccccb#.........",
"..#a#cccccc#ad#.......",
"..#da#bccb###d#.......",
"..#dca####a####.......",
"..#dccaaaaaa###.......",
"..#dccc#cccaa###......",
"..#dccc#dcccaa###.....",
"..#dccc#cccc#aa###....",
"...#dcc#dcc##daa#a....",
"....#dc#c##ccd#aa.....",
".....#d##ddddd#.......",
".....##d#######.......",
"......##..............",
"......................"};
