/* XPM */
static char*make[]={
"22 22 4 1",
"# c #000080",
"a c #000000",
". c None",
"b c #dcdcdc",
"......................",
"......................",
"....##....##....##....",
"....##....##....##....",
"....##....##....##....",
"....##....##....##....",
"....##....##....##....",
"....##....##....##....",
"....##....##....##....",
"....##....##....##....",
"..##################..",
"...####..####..####...",
"....##....##....##....",
"...a..............a...",
"...abbbbbbbbbbbbbba...",
"...abaaaaabbaaaaaba...",
"...abbbbbbbbbbbbbba...",
"...abaaaaabbaaaaaba...",
"...abbbbbbbbbbbbbba...",
"...aaaaaaaaaaaaaaaa...",
"......................",
"......................"};
