/* XPM */
static char * make_xpm[] = {
"22 22 6 1",
" 	c None",
".	c #000000",
"+	c #2CFCFC",
"@	c #002CFC",
"#	c #00D4FC",
"$	c #0080FC",
"                      ",
"                      ",
"                      ",
"                      ",
"        ......        ",
"     ...+@#+@+...     ",
"    .#+@#@++@+@++.    ",
"    .###++##++#++.    ",
"    ...+##++##+...    ",
"   .#####+..++##++.   ",
"   .$$.###..##+.##.   ",
"   .$.$######+##.#.   ",
"   ..+$#########$..   ",
"    .+$.#.##.#.#$.    ",
"    .+.+$.##.#$.$.    ",
"    ...+$.$$.$$...    ",
"      .+$.##.$$.      ",
"      ....##....      ",
"         ....         ",
"                      ",
"                      ",
"                      "};
