/* XPM */
static char*newwidget[]={
"22 22 13 1",
"k c #bebebe",
"g c #ffa858",
"j c #c3c3c3",
"f c #a6a6be",
"d c #0000be",
"b c #808000",
"e c #c05800",
"# c #000000",
"c c #ffff00",
"h c #800000",
"a c #ffffc0",
". c None",
"i c #ffffff",
"......................",
"......................",
"....#.................",
"...#a#.#b#............",
"...#aa#acb............",
"...#aaaab#............",
"..#aacac#.##..........",
".#aacaccc##d##........",
"..##eccbcc#fdd##......",
"..#ghcb####iifdd##....",
".#ge#c#fdd##iiifdd##..",
"#ge###jjijjd##iiifd#..",
"ge#...#iiiijdd##iii#..",
"e#....#iiiijifd#iii#..",
"#.....#iiijjiii#iii#..",
"......##jiijiii#kii#..",
".......jj#kjiii###k#..",
"..........##kii#..##..",
"............##k#......",
"..............##......",
"......................",
"......................"};
