/* XPM */
static char*openprj[]={
"16 16 6 1",
"# c #000000",
"d c #996633",
"c c #cc9966",
". c None",
"b c #ffcc99",
"a c #ffffff",
".........####...",
"............##.#",
"...#########.###",
"...#aaaaaaa#.###",
".###a###########",
".#a#a#aaaaa#....",
".#b#a#aaaaa#....",
".#b###########..",
".#b##bbcccccd#..",
".#b#bbcbcccd#...",
".#b#bbcccdcd#...",
".##bbcbcccd#....",
".##bbcccdcd#....",
".#dddddddd#.....",
".##########.....",
"................"};
