/* XPM */
static char*output_win[]={
"22 22 6 1",
"# c #000080",
"c c #808000",
"d c #c05800",
"a c #000000",
". c None",
"b c #ffffff",
"......................",
"......................",
"......................",
"....################..",
"....################..",
"....abbbbbbbbbbbbbba..",
"....abb.aaabbbbbbbba..",
"....abbacccabbbbbbba..",
"....abaaaaccaabbbbba..",
"....abbbbacccaabbbba..",
"....abbbbacccccaabba..",
"....abbb.aaaaaccabba..",
"....abb.adabbacabbba..",
"....abbadabbbbabbbba..",
"....aaadaaaaaaaaaaaa..",
".....ada..............",
"....ada...............",
"...ada................",
"...aa.................",
"......................",
"......................",
"......................"};
