/* XPM */
static char*rebuild[]={
"22 22 5 1",
"# c #808080",
"a c #000000",
". c None",
"b c #dcdcdc",
"c c #ffffff",
"......................",
"........##aaa#........",
".......#aaaaaaa.......",
"......#aa#....#a......",
"......aa#.............",
".....aaa.......a......",
"...aaaaaaa....aaa.....",
"....aaaaa....aaaaa....",
".....aaa....aaaaaaa...",
"......a.......aaa.....",
".............#aa......",
"......a#....#aa#......",
".......aaaaaaa#.......",
"...a....#aaa##....a...",
"...abbbbbbbbbbbbbba...",
"...abaacaabbaacaaba...",
"...abbbbbbbbbbbbbba...",
"...abaacaabbaacaaba...",
"...abbbbbbbbbbbbbba...",
"...aaaaaaaaaaaaaaaa...",
"......................",
"......................"};
