/* XPM */
static char*redo[]={
"22 22 2 1",
"# c #000080",
". c None",
"......................",
"......................",
"......................",
"......................",
"......................",
"......................",
"......................",
"......######..........",
".....########.........",
"....##....####........",
"...........###........",
"............###.......",
"..........#######.....",
"...........#####......",
"............###.......",
".............#........",
"......................",
"......................",
"......................",
"......................",
"......................",
"......................"};
