/* XPM */
static char*reload_page[]={
"22 22 6 1",
"b c #808080",
"d c #008000",
"# c #000000",
". c None",
"c c #dcdcdc",
"a c #ffffff",
"......................",
"......................",
"....###########.......",
"....#aaaaaaaaa#b......",
"....#aaaaaaaaa#cb.....",
"....#aaaaaaaaa####....",
"....#aaaadaaaaaaa#....",
"....#aaaddaaaaaaa#....",
"....#aadddddddaaa#....",
"....#aaaddaaaadaa#....",
"....#aaaadaaaadaa#....",
"....#aadaaaaaadaa#....",
"....#aadaaaaaadaa#....",
"....#aadaaaadaaaa#....",
"....#aadaaaaddaaa#....",
"....#aaadddddddaa#....",
"....#aaaaaaaddaaa#....",
"....#aaaaaaadaaaa#....",
"....#aaaaaaaaaaaa#....",
"....##############....",
"......................",
"......................"};
