/* XPM */
static char*run[]={
"22 22 12 1",
"d c #808080",
"e c #ffa858",
"b c #a0a0a0",
"c c #c3c3c3",
"f c #c0c0c0",
"# c #000000",
"g c #ffdca8",
"h c #ffffc0",
". c None",
"j c #585858",
"a c #dcdcdc",
"i c #ffffff",
"......................",
"......................",
"......................",
"..........##..........",
"......##.#aa#.##......",
".....#ab#bccb#ba#.....",
".....#badbeebdab#.....",
".....f#deegeged#......",
"....##abegddegba##....",
"...#acbegebbghebca#...",
"...#dbadghggihdabd#...",
"....#jjadghigdajj#....",
".....#dcaaddaacd#.....",
"....#bidjdaadjdib#....",
"....#abj##bb##jba#....",
".....###f#ai#.###.....",
".....ffff#jd#.........",
"..........##..........",
"......................",
"......................",
"......................",
"......................"};
