/* XPM */
static char*run[]={
"22 22 11 1",
"d c #808080",
"e c #ffa858",
"b c #a0a0a0",
"c c #c3c3c3",
"# c #000000",
"f c #ffdca8",
"g c #ffffc0",
". c None",
"i c #585858",
"a c #dcdcdc",
"h c #ffffff",
"......................",
"......................",
"......................",
"..........##..........",
"......##.#aa#.##......",
".....#ab#bccb#ba#.....",
".....#badbeebdab#.....",
"......#deefefed#......",
"....##abefddefba##....",
"...#acbefebbfgebca#...",
"...#dbadfgffhgdabd#...",
"....#iiadfghfdaii#....",
".....#dcaaddaacd#.....",
"....#bhdidaadidhb#....",
"....#abi##bb##iba#....",
".....###.#ah#.###.....",
".........#id#.........",
"..........##..........",
"......................",
"......................",
"......................",
"......................"};
