/* XPM */
static char*save_all[]={
"22 22 7 1",
"# c #000000",
"c c #000066",
"e c #666666",
". c None",
"a c #0000cc",
"d c #585858",
"b c #ffffff",
"......................",
"......................",
".......#############..",
".......#abbbbbbbbaa#..",
"....#############aa#..",
"....#abbbbbbbbaa#aa#..",
".#############aa#aa#..",
".#abbbbbbbbaa#aa#aa#..",
".#ab#####bbaa#aa#aa#..",
".#abbbbbbbbaa#aa#aa#..",
".#ab###bbbbaa#aa#aa#..",
".#abbbbbbbbaa#aa#aa#..",
".#abbbbbbbbaa#ca#aa#..",
".#aaaaaaaaaaa#ca#aa#..",
".#accccccccca#ca#aa#..",
".#accccccccca#ca####..",
".#acc.....cca#ca#.d...",
".#acc..cc.cca####dd...",
".#acc..cc.cca#.e......",
".#############ee......",
"......................",
"......................"};
