/* XPM */
static char * save_all_xpm[] = {
"16 16 7 1",
" 	c None",
".	c #000000",
"+	c #0000CC",
"@	c #FFFFFF",
"#	c #000066",
"$	c #C3C3C3",
"%	c #666666",
"   .............",
"   .+@@@@@@@@++.",
".............++.",
".+@@@@@@@@++.++.",
".+@.....@@++.++.",
".+@@@@@@@@++.++.",
".+@...@@@@++.++.",
".+@@@@@@@@++.++.",
".+@@@@@@@@++.#+.",
".+++++++++++.#+.",
".+#########+.#+.",
".+#########+.#+.",
".+##$$$$$##+.#+.",
".+##$$##$##+....",
".+##$$##$##+. % ",
".............%% "};
