/* XPM */
static char*start_page[]={
"22 22 6 1",
"d c #c0c0c0",
"# c #000000",
"b c #ffff00",
". c None",
"a c #800000",
"c c #ffffff",
"......................",
"......................",
"......................",
"..........##..........",
".....aa..#bb#.........",
".....aa.#bbbb#........",
".....aa#bb##bb#.......",
".....a#bb#cc#bb#......",
".....#bb#cccc#bb#.....",
"....#bb#cccccc#bb#....",
"....###cccccccd###....",
".....#ccccccccdd#.....",
".....#ccc####cdd#.....",
".....#ccc#bb#cdd#.....",
".....#ccc#bb#cdd#.....",
".....#ccc#bb#cdd#.....",
".....#ccc#bb#cdd#.....",
".....############.....",
"......................",
"......................",
"......................",
"......................"};
