/* XPM */
static char * stop_xpm[] = {
"22 22 6 1",
" 	c None",
".	c #000000",
"+	c #00D4FC",
"@	c #2CFCFC",
"#	c #0000DC",
"$	c #002CFC",
"                      ",
"                      ",
"                      ",
"                      ",
"                      ",
"      .........       ",
"     .+@@@@@@@@.      ",
"     .@+++++++#.#     ",
"     .@+++++++#.#     ",
"     .@+++++++#.#     ",
"     .@+++++++#.#     ",
"     .@+++++++#.#     ",
"     .@+++++++#.#     ",
"     .@+++++++#.#     ",
"     .@########.#     ",
"     $.........$#     ",
"      ##########      ",
"                      ",
"                      ",
"                      ",
"                      ",
"                      "};
