/* XPM */
static char*stop_proc[]={
"22 22 4 1",
"# c #000000",
". c None",
"a c #c00000",
"b c #ffffff",
"......................",
"......................",
".......########.......",
"......#aaaaaaaa#......",
".....#aaaaaaaaaa#.....",
"....#aaaaaaaaaaaa#....",
"...#aaaaaaaaaaaaaa#...",
"..#aaaaaaaaaaaaaaaa#..",
"..#abaabbbaabaaabba#..",
"..#babaabaababaabab#..",
"..#baaaabaababaabab#..",
"..#abaaabaababaabba#..",
"..#aabaabaababaabaa#..",
"..#babaabaababaabaa#..",
"..#abaaabaaabaaabaa#..",
"...#aaaaaaaaaaaaaa#...",
"....#aaaaaaaaaaaa#....",
".....#aaaaaaaaaa#.....",
"......#aaaaaaaa#......",
".......########.......",
"......................",
"......................"};
