/* XPM */
static char*tree_win[]={
"22 22 7 1",
"d c #c0c000",
"# c #000080",
"c c #808000",
"b c #000000",
"e c #f5ed00",
". c None",
"a c #ffffff",
"......................",
"......................",
"......................",
"......................",
"..################....",
"..#a##############....",
"..b###############....",
"..baaaabaaaaaaaaab....",
"..baaaabaaccaaaaab....",
"..baaaabacdddccaab....",
"..baaaabcceeedccccc...",
"..baaaabceeeeeeeeecb..",
"..baaaabceeeeeeeeecb..",
"..baaaabceeeeeeeeecb..",
"..baaaabceeeeeeeeecb..",
"..baaaabceeeeeeeeecb..",
"..bbbbbbceeeeeeeeecb..",
"........cccccccccccb..",
"..........bbbbbbbbbb..",
"......................",
"......................",
"......................"};
