/* XPM */
static char*undo[]={
"22 22 2 1",
"# c #000080",
". c None",
"......................",
"......................",
"......................",
"......................",
"......................",
"......................",
"......................",
"..........######......",
".........########.....",
"........####....##....",
"........###...........",
".......###............",
".....#######..........",
"......#####...........",
".......###............",
"........#.............",
"......................",
"......................",
"......................",
"......................",
"......................",
"......................"};
