/* XPM */
static char * development_package2_xpm[] = {
"32 32 219 2",
"  	c None",
". 	c #020204",
"+ 	c #FEF6B4",
"@ 	c #FEFEFC",
"# 	c #FAF6D4",
"$ 	c #FAFAE4",
"% 	c #F2EAA4",
"& 	c #F6EEBC",
"* 	c #F6F2CC",
"= 	c #FEFAEC",
"- 	c #EEE294",
"; 	c #D6C664",
"> 	c #F2E69C",
", 	c #E6DA84",
"' 	c #BEAE5C",
") 	c #B6B604",
"! 	c #EEDE84",
"~ 	c #DECE74",
"{ 	c #DACA74",
"] 	c #A2A204",
"^ 	c #AAAA04",
"/ 	c #AEAE04",
"( 	c #B2B204",
"_ 	c #D6C674",
": 	c #9A8A44",
"< 	c #827E0C",
"[ 	c #8A8604",
"} 	c #8E8E04",
"| 	c #969204",
"1 	c #9E9E04",
"2 	c #CABE6C",
"3 	c #CABA6C",
"4 	c #C2B664",
"5 	c #BEB264",
"6 	c #EEE284",
"7 	c #CEBA54",
"8 	c #726234",
"9 	c #625E0C",
"0 	c #6A660C",
"a 	c #726E0C",
"b 	c #76720C",
"c 	c #7E7A0C",
"d 	c #828204",
"e 	c #868604",
"f 	c #B6AA5C",
"g 	c #AEA65C",
"h 	c #AEA25C",
"i 	c #AAA254",
"j 	c #FEEE94",
"k 	c #5E5E5C",
"l 	c #4A4614",
"m 	c #524E0C",
"n 	c #56520C",
"o 	c #5E5A0C",
"p 	c #72720C",
"q 	c #7A7A0C",
"r 	c #A69E54",
"s 	c #A69A54",
"t 	c #3E3A1C",
"u 	c #9E924C",
"v 	c #968E4C",
"w 	c #928A44",
"x 	c #82763C",
"y 	c #6E5E24",
"z 	c #6E6A5C",
"A 	c #423E0C",
"B 	c #4E4E04",
"C 	c #5A5604",
"D 	c #8E8644",
"E 	c #8A8244",
"F 	c #7E6E34",
"G 	c #7A7A5C",
"H 	c #3E3A0C",
"I 	c #46420C",
"J 	c #222204",
"K 	c #827A3C",
"L 	c #7A7634",
"M 	c #665E2C",
"N 	c #5A5634",
"O 	c #FEFADC",
"P 	c #565654",
"Q 	c #4E4E4C",
"R 	c #B2AE94",
"S 	c #928E6C",
"T 	c #FEF2AC",
"U 	c #F6EEA4",
"V 	c #3A360C",
"W 	c #32322C",
"X 	c #E2E2E4",
"Y 	c #626264",
"Z 	c #6E6A2C",
"` 	c #C6C6C4",
" .	c #FEF2BC",
"..	c #FEF6CC",
"+.	c #A6A6A4",
"@.	c #E2DABC",
"#.	c #FEF6C4",
"$.	c #D6D2C4",
"%.	c #322A0C",
"&.	c #C2C2C4",
"*.	c #CECED4",
"=.	c #9E9E9C",
"-.	c #767674",
";.	c #828284",
">.	c #7A7A7C",
",.	c #7A760C",
"'.	c #424244",
").	c #727274",
"!.	c #9A8674",
"~.	c #FEAE64",
"{.	c #FEC27C",
"].	c #FEBE7C",
"^.	c #EAB27C",
"/.	c #8A827C",
"(.	c #8E8E8C",
"_.	c #3A3A34",
":.	c #56564C",
"<.	c #56524C",
"[.	c #46463C",
"}.	c #363634",
"|.	c #1E1E1C",
"1.	c #929294",
"2.	c #A69284",
"3.	c #F6A664",
"4.	c #FED294",
"5.	c #FED69C",
"6.	c #FEE6AC",
"7.	c #EACA9C",
"8.	c #9A9A9C",
"9.	c #525254",
"0.	c #F2F2F4",
"a.	c #D6D6D4",
"b.	c #3ABABC",
"c.	c #02C2C4",
"d.	c #02A6A4",
"e.	c #028E8C",
"f.	c #028284",
"g.	c #BEBEBC",
"h.	c #AA9684",
"i.	c #FEC684",
"j.	c #EECE9C",
"k.	c #766E64",
"l.	c #9E8E74",
"m.	c #FEE2A4",
"n.	c #FEEAB4",
"o.	c #7E7E7C",
"p.	c #FEFAD4",
"q.	c #FEFAC4",
"r.	c #D69A64",
"s.	c #D2BA94",
"t.	c #A6A604",
"u.	c #9E9A04",
"v.	c #FEEEB4",
"w.	c #FEDA94",
"x.	c #AA8E74",
"y.	c #2E2E2C",
"z.	c #8E8E94",
"A.	c #2A2A2C",
"B.	c #A6A6AC",
"C.	c #FEFAB4",
"D.	c #CAA284",
"E.	c #C6B69C",
"F.	c #8A7E6C",
"G.	c #E2D2B4",
"H.	c #FEFEDC",
"I.	c #FEFECC",
"J.	c #F2C694",
"K.	c #7E7E0C",
"L.	c #B6B6B4",
"M.	c #4A4A4C",
"N.	c #6A6A6C",
"O.	c #FEFAAC",
"P.	c #C69E74",
"Q.	c #FEDA9C",
"R.	c #FEF6BC",
"S.	c #FEF2E4",
"T.	c #FEFAF4",
"U.	c #8A8A8C",
"V.	c #EAD2A4",
"W.	c #FEF2C4",
"X.	c #FEE6B4",
"Y.	c #DECAA4",
"Z.	c #FEF6A4",
"`.	c #FEF69C",
" +	c #A29E04",
".+	c #969604",
"++	c #B2A28C",
"@+	c #AA9E8C",
"#+	c #BAA28C",
"$+	c #6E6A0C",
"%+	c #F6F6F4",
"&+	c #E6E6E4",
"*+	c #D6D6DC",
"=+	c #D2D2D4",
"-+	c #0E0E0C",
";+	c #3E3E3C",
">+	c #CECECC",
",+	c #DADADC",
"'+	c #AAAAAC",
")+	c #464644",
"!+	c #4E4E54",
"~+	c #8E8A04",
"{+	c #868204",
"]+	c #EAEAEC",
"^+	c #363614",
"/+	c #262614",
"(+	c #A2A2A4",
"_+	c #1E1E04",
":+	c #62620C",
"<+	c #56522C",
"[+	c #565224",
"}+	c #3A3A04",
"|+	c #56560C",
"1+	c #FEF684",
"2+	c #FEF694",
"3+	c #FEF26C",
"4+	c #76760C",
"5+	c #FEF67C",
"6+	c #FEF264",
"                        .             .                         ",
"                    . . + .         . @ . .                     ",
"                . . + + + + .     . # $ @ @ . .                 ",
"            . . % % % % % % % . . & & * * # = @ . .             ",
"        . . - - - - - - - - ; ; @ @ > % & & * * # $ . .         ",
"    . . , , , , , , , , ' ' ) ) ! ! @ @ > > % & & * * # . .     ",
"  . ~ ~ { ~ ~ ~ ~ ~ ' ' ] ^ / ( ~ { ; _ @ @ - - > % & & * * .   ",
"    . ; ; ; ; ; : : < [ } | 1 ] 2 2 3 4 4 5 @ @ ! 6 > > % .     ",
"      . 7 7 8 8 9 0 a b c d e } f f f g g g h i @ @ 6 6 .       ",
"  . . j k l l l m n o 9 0 a p q r s s . t u v v w x y z @ . .   ",
"      . j j j l l A l B n C 9 0 w w . D D . E F F = = @ .       ",
"        . G j j j l l H I l J . K K . L L M N O O P Q .         ",
"        . R S G T T U H V W X I . Y Z ` `  .... . I +..         ",
"        . @ @.R S G #.$.. %.%.&.*.=.B -.;.>.I +.X ,.. .         ",
"        . @ = @ @.R S G +.'.$ @ ).!.~.~.{.].^./.(.| _..         ",
"    . . . _.:.:.:.<.[.W }.|.=.1.2.3.{.{.4.5.6.7.>.8.. .         ",
"    9.0.a.b.c.d.e.f.g.[.9.-.g.h.~.i.j.k.9.l.m.n.^.e d k 9.      ",
"    P a.o.f.c.d.e.f.p.q.q.q.g.r.4.m.s.t.] u.6.v.w.x.a.. 0..     ",
"    y.z.(.(.(.(.(.(.A.B.g.8.C.D.].n.v.E.F.G.H.I.J.K.&.L.g.(.    ",
"    P @ @ @ @ @ @ @ -.M.N.Q q.O.P.Q.R.q.S.T.I.v.q ,.U.k . .     ",
"    P @ @ @ @ @ @ @ @ (.P |.Q + t.] V.n.W.X.Y.,.,.p |..         ",
"    P @ @ @ @ @ @ @ @ @ ` Z.`.`. +u..+++@+#+*.,.a $+9 |..       ",
"    P @ @ @ @ @ @ @ @ @ 1.L.%+&.>..+&.a.&+*+,.b 1.=+0.>.-+. .   ",
"    P @ @ @ @ @ @ @ @ @ ;+>+,+'+)+y.k 8.=.,.)+|.-.'+X . . . . . ",
"    P @ @ @ @ @ @ @ @ @ !+k.N.)+B ~+{+< ]+p ^+0 /+Q . . . . .   ",
"    P @ @ @ @ @ @ @ @ @ X Q ;+A.~+e . g.%+(+_+:+o n B . .       ",
"    . . . . . . . . <+<+<+<+[+[+e < c . ;.y.}+o |+. .           ",
"              . . 1+2+1+1+3+1+3+< q b a $+9 o . .               ",
"                  . . 3+1+3+3+3+q 4+a 0 :+. .                   ",
"                      . . 3+3+5+b a $+. .                       ",
"                          . . 6+p . .                           ",
"                              . .                               "};
