/* XPM */
static char * kDevelop_xpm[] = {
"48 48 17 1",
" 	c None",
".	c #DFDFDF",
"+	c #E7E7E7",
"@	c #777777",
"#	c #AFAFAF",
"$	c #000000",
"%	c #9F9F9F",
"&	c #8F8F8F",
"*	c #878787",
"=	c #F7F7F7",
"-	c #7F7F7F",
";	c #FFFFFF",
">	c #CFCFCF",
",	c #A7A7A7",
"'	c #D7D7D7",
")	c #BFBFBF",
"!	c #B7B7B7",
"....+++...+++++++++++++++++++++++++++++++++++++@",
".##############################################$",
".##############################################$",
".###%&##%&##&&%##%&%##&%##&%&##&%&%#######&%&&#$",
".###&&##&&##&%&##&&&##%&##%&&##%&%&#######&&&%#$",
".######*##%*####*###%**###**###################$",
".#####*%###*###*%###*%####%*#*#################$",
".##.======.%*####.=========.%*#*%##%*%#%%######$",
".##.======.*%####.=========.*%#%%##*%##%*######$",
".##############################################$",
".##--#--#########******#*********#***********##$",
".#.;;;;;;;;;>.##.;;;;;;;;;;;;;;;;;;;;;;;;;;>,.#$",
".#;%;%';;;;;>,##;;;;;;;;;;;;;;;;;;;;;;;;;;;>,=#$",
".#;%#'%;;;;;>,##;============;;;;;;;;;;;;;;>,=#$",
".#;%;#;;;;;;>,##;;;;;;;;;;;;;;;;;;;;;;;;;;;>,=#$",
".#;%;#'#';;;>,##;;;;;;;;;;;'==;;;;;;;;;;;;;>,=#$",
".#;%;#;;;;;;>,##;==='''''==;;;;;;;;;;;;;;;;>,=#$",
".#;%;#'#'#';>,##;;;;;);;;;;;;;;;;;;;;;;;;;;>>=#$",
".#;%;#;;;;;;>,##;;;'';);));;;;;;;;;;;;;;;;;>>=#$",
".#;%;#;;;;;;>,##;;));';;;;;;;;;;;;;;;;;;;;;>>=#$",
".#;%;#'#'#';>>##;;==)=)=)==')=);;;;;;;;;;;;>>=#$",
".#;%;#;;;;;;>>##;;;;;;;;;;;;;;;;;;;;;;;;;;;>>=#$",
".#;%;#'#;;;;>>##;;;;;;;;;;;;;;;;;;;;;;;;;;;>>=#$",
".#;%;;;;;;;;>>##;;;;;;;;;;;;;;;;;;);;;;;;;;>>=#$",
".#;%;'';;;;;>>##;);)'='==';;;;);;;;;;;;;;;;>,=#$",
".#;%;=%=;;;;>>##;;;;;;;;'!'=)=)'===;;;;;;;;>,=#$",
".#;%#';;;;;;>>##;;;;;)';;;;;;;;;;;;;;;;;;;;>,=#$",
".#;%;#;;;;;;>>##;;;;;;;;;;;;;;;;;;;;;;;;;;;>,=#$",
".#;%;#'#>;;;>,##;;;;;;;;;;;;;;=;;;;;;;;;;;;>,=#$",
".#;%;#;;;;;;>,##;;;''))';=====;;;;;;;;;;;;;>,=#$",
".#;%;#;;;;;;>,##;;==='''=;';;;;;;;;;;;;;;;;>,=#$",
".#;%;#'#>;;;>,##;;;;;;;;;;;;;;;;;;;;;;;;;;;>,=#$",
".#;%;;;;;;;;>,##;;==='=='''==;;;;;;;;;;;;;;>,=#$",
".#;%;%%;;;;;>,##;;;;;;';;;;;;=)=)'=;;;;;;;;>,=#$",
".#;%;;%;;;;;>,##;;;;;';;;'';;;;;);;;;;;;;;;>,=#$",
".#;%##;;;;;;>,##;;;;;;;';;;;;;;;;;;;;;;;;;;>,=#$",
".#;;;#''#;;;>,##;;;'))'==)='======;;;;;;;;;>,=#$",
".#;;;#;;;;;;>,##;;;;;;)';);;;;;;;;;;;;;;;;;>,=#$",
".#;;;#'#'#;;>,##,##########################>,=#$",
".#.;;;;;;;;;>.##.,,,,,,,>>>>>>>>>>>>>,,,,,,,,.#$",
".##############################################$",
".##############################################$",
".#.;;;;;;''';;;;;;';;;;;;;;;;;;;;;;;;;;;;;;;;.#$",
".#;;;''));;;;'))''')'')';;;;;)'';)'''');;;;;;;#$",
".#;));;;';;;;;;;;;;;;;;;)''''';;;;;;;;);;;;;;;#$",
".#.++++++++++++++++++++++++++++++++++++++++++.#$",
".##############################################$",
"@$$$$$$$$$$$$$$$$$$$$$$$$$$$$$$$$$$$$$$$$$$$$$$$"};
