/* XPM */
static char*kdevelop[]={
"32 32 93 2",
"#o c #d9d9d9",
".Y c #fcfcfc",
"#f c #e1e1e1",
".q c #ababab",
"#p c #e9e9e9",
"#b c #f1f1f1",
".l c #989898",
"#y c #d6d6d6",
"#w c #bbbbbb",
"#n c #f9f9f9",
".0 c #dedede",
".z c #c3c3c3",
".g c #a8a8a8",
"#l c #e6e6e6",
"#c c #cbcbcb",
"#x c #b0b0b0",
"#h c #eeeeee",
".8 c #d3d3d3",
".d c #7a7a7a",
".9 c #f6f6f6",
".n c #9d9d9d",
".3 c #dbdbdb",
".Z c #fefefe",
".F c #a5a5a5",
"#g c #e3e3e3",
".P c #c8c8c8",
".u c #adadad",
".6 c #ebebeb",
".t c #929292",
".f c #393939",
"#m c #d0d0d0",
".C c #b5b5b5",
"#k c #f3f3f3",
".j c #9a9a9a",
".U c #d8d8d8",
"#q c #fbfbfb",
".M c #a2a2a2",
".S c #e0e0e0",
"#A c #131313",
".G c #aaaaaa",
"#a c #e8e8e8",
"#i c #f0f0f0",
"#. c #d5d5d5",
".Q c #bababa",
".r c #9f9f9f",
"## c #dddddd",
".w c #c2c2c2",
".E c #a7a7a7",
"#d c #e5e5e5",
".W c #cacaca",
".e c #afafaf",
"#e c #ededed",
".K c #949494",
".c c #d2d2d2",
"#z c #797979",
".4 c #f5f5f5",
".L c #9c9c9c",
"Qt c #dadada",
".2 c #bfbfbf",
".X c #fdfdfd",
".p c #a4a4a4",
"#r c #e2e2e2",
".x c #c7c7c7",
".v c #acacac",
".1 c #eaeaea",
".k c #919191",
".# c #cfcfcf",
".5 c #f2f2f2",
".s c #999999",
".R c #d7d7d7",
".7 c #fafafa",
".i c #a1a1a1",
".N c #dfdfdf",
".D c None",
".A c #c4c4c4",
".H c #e7e7e7",
".T c #cccccc",
".y c #b1b1b1",
".J c #efefef",
".o c #969696",
".b c #d4d4d4",
"#v c #b9b9b9",
".I c #f7f7f7",
"#u c #dcdcdc",
".V c #ffffff",
".m c #a6a6a6",
".O c #e4e4e4",
"#t c #c9c9c9",
"#s c #aeaeae",
"#j c #ececec",
".h c #939393",
".a c #d1d1d1",
".B c #b6b6b6",
"Qt.#.a.b.c.#.a.b.b.b.b.b.b.b.b.b.b.b.b.b.b.b.b.b.b.b.b.b.b.b.b.d",
".#.e.e.e.e.e.e.e.e.e.e.e.e.e.e.e.e.e.e.e.e.e.e.e.e.e.e.e.e.e.e.f",
".#.e.g.h.e.i.j.e.k.l.e.i.h.g.m.l.e.n.o.p.m.l.o.g.e.e.e.e.h.h.n.f",
".#.e.q.p.m.r.p.s.m.m.m.r.p.p.t.n.e.j.h.q.u.m.g.q.e.e.e.e.p.p.v.f",
".#.e.w.x.y.z.A.r.m.e.s.B.x.C.D.x.x.D.m.h.q.E.e.v.F.u.G.u.e.e.e.f",
".#.e.H.I.I.I.J.G.r.e.e.#.I.I.I.I.I.I.A.K.E.L.e.j.n.u.j.F.e.e.e.f",
".#.e.r.G.r.G.e.e.e.e.e.m.M.M.M.q.M.M.M.M.M.M.q.M.M.M.M.M.M.M.e.f",
".#.A.b.N.b.N.O.O.P.Q.Q.b.R.R.R.S.R.R.R.R.R.R.S.R.R.R.R.R.T.F.A.f",
".#.O.B.z.U.V.V.V.w.v.W.X.Y.Y.Y.Y.Y.Y.Y.Z.V.V.V.V.V.V.V.V.J.C.0.f",
".#.O.B.W.1.V.V.V.w.v.W.X.Y.Y.Y.Y.Y.Y.Y.Z.V.V.V.V.V.V.V.V.J.C.0.f",
".#.O.2.W.3.3.V.V.w.v.W.X.Y.4.5.5.4.Y.6.7.V.V.V.V.V.V.V.V.J.C.0.f",
".#.O.2.W.3.3.8.9.w.v.W.X.Y.4#..5.4.Y.V.V.V.V.V.V.V.V.V.V.J.x.0.f",
".#.O.2.W.V.V.V.V.w.v.W.V.S###a#b#.#b.V.V.V.V.V.V.V.V.V.V.J.#.0.f",
".#.O.2.W.3.3.8.9#c.C.W.V#dQt.O#e#f.7.N#e#g.V.V.V.V.V.V.V.J.#.0.f",
".#.O.2.W#e.9.V.V.#.Q.W.V.V.V.V.V.V.V.V.V.V.V.V.V.V.V.V.V.J.#.0.f",
".#.O.2#e#h.9.V.V.#.Q.W.V.V.V.V.V.V.V.V.V.V.V#i#b.V.V.V.V.J.#.0.f",
".#.O.2#j.R.Z.V.V.#.Q.W#g#b.N#k#k#f#l.9.4#m#n.Y.Z.V.V.V.V.J.C.0.f",
".#.O.u#o#p.Z.V.V.#.Q.W.V.V.V#o.9#h#h.9.9#e#n.Y.Z.V.V.V.V.J.C.0.f",
".#.O.2.W#e.6.V.V.W.C.W.V.V.V.V.V.V.V.V.V.X.V.V.V.V.V.V.V.J.C.0.f",
".#.O.2.W#h#j.V.V.w.v.W.V.9.O.b.N.X#n.7.7.X.V.V.V.V.V.V.V.J.C.0.f",
".#.O.2.W#e.6.V.V.w.v.W.V.7.7#d#d.Y#h.V.V.V.V.V.V.V.V.V.V.J.C.0.f",
".#.O.2#e#e#j.V.V.w.v.W.V.7.7.6.7.O.O.7.X.V.V.V.V.V.V.V.V.J.C.0.f",
".#.O.2#..2.V.V.V.w.v.W.V.V.V#e.9.7#b.V#q#r.8#j.X.V.V.V.V.J.C.0.f",
".#.O#s#t.1.V.V.V.w.v.W.V.V.V.9#e#q.5.V.V.V#b.V.V.V.V.V.V.J.C.0.f",
".#.O.V.W#d.8.V.V.w.v.W.V.9Qt.8#r#l#l#j.7.7.7.Y.V.V.V.V.V.J.C.0.f",
".#.O.V.W.3.3#u.V.w.v.B.x#t#t.w#v.w.w#t#t#t#t#t#t#t#t#t#t#c.C.0.f",
".#.A.O.O.O.O.O.O.P.Q.Q.B.G.G.G.G.A.A.A.A.A.A.A.A#w.G.G.G.G.G.A.f",
".#.e#x#x#x#x.e.e#x#x#x#x.e#x#x#x#x#x#x#x#x#x#x#x#x#x#x#x#x#x.e.f",
".##y.V.9#h#p#d#d.7#j#j#b###h#h#h.V.V.V#i#b.7#j#b#b#j.V.V.V.V#y.f",
".#.O.b#a.J.U.V.V#q#e#e.5.J.J.J.J#o.O.O#y.5#q#e.5.5#m.V.V.V.V.O.f",
".#.A.b.b.b.b.b.b.b.b.b.b.b.b.b.b.b.b.b.b.b.b.b.b.b.b.b.b.b.b.A.f",
"#z.f.f.f.f.f.f.f.f.f.f.f.f.f.f.f.f.f.f.f.f.f.f.f.f.f.f.f.f.f.f#A"};
