/* XPM */
static char*kdevelop[]={
"32 32 76 2",
".i c #9b9b9b",
".n c #d9d9d9",
".C c #bebebe",
".G c #fcfcfc",
"## c #e1e1e1",
".7 c #e9e9e9",
".q c #b3b3b3",
".L c #f1f1f1",
".O c #d6d6d6",
".Q c #bbbbbb",
".4 c #f9f9f9",
".h c #a0a0a0",
"#. c #dedede",
".p c #a8a8a8",
".8 c #c0c000",
"#e c #b0b0b0",
".B c #7a7a7a",
".x c #b8b8b8",
".0 c #f6f6f6",
".g c #9d9d9d",
".K c #dbdbdb",
".3 c #fefefe",
"#j c #808000",
".e c #a5a5a5",
".F c #e3e3e3",
"#a c #c8c8c8",
".m c #6f6f6f",
".A c #adadad",
".1 c #ebebeb",
".Y c #f3f3f3",
".o c #d8d8d8",
".5 c #404000",
".d c #a2a2a2",
"#h c #878787",
".Z c #e8e8e8",
".W c #cdcdcd",
".u c #747474",
".z c #000000",
".M c #f8f8f8",
".s c #dddddd",
".6 c #c2c2c2",
".t c #a7a7a7",
".J c #8c8c8c",
".l c #afafaf",
".P c #ededed",
".w c #b7b7b7",
".r c #dadada",
".a c #bfbfbf",
".H c #fdfdfd",
".k c #a4a4a4",
"#c c #acacac",
"#i c #535353",
".N c #eaeaea",
"#g c #919191",
"#b c #ffffc0",
".U c #f2f2f2",
".y c #bcbcbc",
".f c #a1a1a1",
".S c #dfdfdf",
"Qt c None",
".v c #c4c4c4",
".T c #e7e7e7",
".c c #8e8e8e",
".X c #cccccc",
".D c #efefef",
".9 c #d4d4d4",
"#d c #b9b9b9",
".V c #f7f7f7",
".j c #9e9e9e",
".b c #c1c1c1",
".E c #ffffff",
".R c #e4e4e4",
"#f c #8b8b8b",
".# c #c9c9c9",
".2 c #ececec",
".I c #d1d1d1",
"QtQtQtQtQtQtQtQtQtQtQtQtQtQtQtQtQtQtQtQtQtQtQtQtQtQtQtQtQtQtQtQt",
"QtQtQtQtQtQtQtQtQtQtQtQtQtQtQtQtQtQtQtQtQtQtQtQtQtQtQtQtQtQtQtQt",
"QtQtQtQtQtQtQtQtQtQtQtQtQtQtQtQtQtQtQtQtQtQtQtQtQtQtQtQtQtQtQtQt",
"QtQtQtQtQtQtQtQtQtQtQtQtQtQtQtQtQtQtQtQtQtQtQtQtQtQtQtQtQtQtQtQt",
"QtQtQtQtQtQtQtQtQt.#Qt.aQt.b.b.b.b.b.b.b.b.b.b.b.cQtQtQtQtQtQtQt",
"QtQtQtQtQtQtQtQtQt.a.d.e.f.g.e.h.i.e.j.k.k.l.l.i.mQtQtQtQtQtQtQt",
"QtQtQtQtQtQtQtQtQt.a.n.o.a.p.q.r.s.s.k.e.p.t.e.l.uQtQtQtQtQtQtQt",
"QtQtQtQtQtQtQtQtQt.v.a.a.#.w.x.y.z.y.y.y.z.y.y.A.BQtQtQtQtQtQtQt",
"QtQtQtQtQtQtQtQtQt.n.C.D.E.w.F.G.G.G.H.E.E.E.E.I.JQtQtQtQtQtQtQt",
"QtQtQtQtQtQtQtQtQt.n.v.K.L.w.F.M.N.M.M.E.E.E.E.O.JQtQtQtQtQtQtQt",
"QtQtQtQtQtQtQtQtQt.n.v.P.L.Q.R.S.N.T.U.V.E.E.E.S.J.z.zQtQtQtQtQt",
"QtQtQtQtQtQtQtQtQt.n.W.L.E.v.R.E.E.E.E.E.V.E.E.S.J.E.E.z.zQtQtQt",
"QtQtQtQtQtQtQtQtQt.n.X.D.E.v.s.Y.P.Z.0.1.H.E.E.I.J.E.E.E.E.z.zQt",
"QtQtQtQtQtQtQtQtQt.n.v.2.E.Q.R.0.2.H.G.3.E.E.E.I.J.E.E.E.E.E.zQt",
"QtQtQtQtQtQtQtQtQt.n.W.2.E.w.R.4.1.2.H.E.E.E.E.I.J.E.E.E.E.5.zQt",
"QtQtQtQtQtQtQtQt.z.n.6.7.E.w.R.E.L.0.3.Z.4.E.E.I.J.E.E.E.5.8.zQt",
"QtQtQtQtQtQtQt.z.E.n.R.K.0.w.I.o.X.9#.##.F.R.R#a.J.E.E.5.8.zQtQt",
"QtQtQtQtQtQt.z.E#b.v.#.#.#.w.q#c#c#d#d#d#d#e#c#c.B.E.5.8.zQtQtQt",
"QtQtQtQtQt.z#b#b.E.O.2.T.L.Y.D.N.D.D.N.0.D.T.E.E#f.5.8.zQtQtQtQt",
"QtQtQtQt.z#b#b#b#b#g#h#h#h#h#h#h#h#h#h#h#h#h#h#h#i.8.zQtQtQtQtQt",
"QtQtQt.z#b#b#b#b#b#b#b#b.E#b.E#b.E.E#b.E.E.E#b.5.8.zQtQtQtQtQtQt",
"QtQt.z#j#b#b#b#b#b#b#b#b#b#b.E.E#b#b.E.E#b.E.5.8.zQtQtQtQtQtQtQt",
"QtQt.z.8#j#j#b#b#b#b#b#b#b#b.E#b.E.E#b#b.E.5.8.zQtQtQtQtQtQtQtQt",
"QtQt.z.z.8.8#j#j#b#b#b#b#b#b#b#b#b#b.E.E.5.8.zQtQtQtQtQtQtQtQtQt",
"QtQtQtQt.z.z.8.8#j#j#b#b#b#b#b#b#b#b#b.5.8.zQtQtQtQtQtQtQtQtQtQt",
"QtQtQtQtQtQt.z.z.8.8#j#j#b#b#b#b#b#b.5.8.zQtQtQtQtQtQtQtQtQtQtQt",
"QtQtQtQtQtQtQtQt.z.z.8.8#j#j#b#b#b.5.8.zQtQtQtQtQtQtQtQtQtQtQtQt",
"QtQtQtQtQtQtQtQtQtQt.z.z.8.8#j#j.5.8.zQtQtQtQtQtQtQtQtQtQtQtQtQt",
"QtQtQtQtQtQtQtQtQtQtQtQt.z.z.8.8.8.zQtQtQtQtQtQtQtQtQtQtQtQtQtQt",
"QtQtQtQtQtQtQtQtQtQtQtQtQtQt.z.z.zQtQtQtQtQtQtQtQtQtQtQtQtQtQtQt",
"QtQtQtQtQtQtQtQtQtQtQtQtQtQtQtQtQtQtQtQtQtQtQtQtQtQtQtQtQtQtQtQt",
"QtQtQtQtQtQtQtQtQtQtQtQtQtQtQtQtQtQtQtQtQtQtQtQtQtQtQtQtQtQtQtQt"};
