/* XPM */
static char*mini[]={
"16 16 71 2",
".i c #9b9b9b",
".n c #d9d9d9",
".B c #bebebe",
".F c #fcfcfc",
".8 c #e1e1e1",
".5 c #e9e9e9",
".q c #b3b3b3",
".K c #f1f1f1",
".N c #d6d6d6",
".P c #bbbbbb",
".3 c #f9f9f9",
".h c #a0a0a0",
".7 c #dedede",
".p c #a8a8a8",
"#a c #b0b0b0",
".A c #7a7a7a",
".x c #b8b8b8",
".Z c #f6f6f6",
".g c #9d9d9d",
".J c #dbdbdb",
".# c #c0c0c0",
".2 c #fefefe",
".e c #a5a5a5",
".E c #e3e3e3",
".9 c #c8c8c8",
".m c #6f6f6f",
".z c #adadad",
".0 c #ebebeb",
".X c #f3f3f3",
".o c #d8d8d8",
".d c #a2a2a2",
"#d c #878787",
".Y c #e8e8e8",
".V c #cdcdcd",
".u c #747474",
".L c #f8f8f8",
".s c #dddddd",
".4 c #c2c2c2",
".t c #a7a7a7",
".I c #8c8c8c",
".l c #afafaf",
".O c #ededed",
".w c #b7b7b7",
".r c #dadada",
".a c #bfbfbf",
".G c #fdfdfd",
".k c #a4a4a4",
"#. c #acacac",
"#e c #535353",
".M c #eaeaea",
"#c c #919191",
".T c #f2f2f2",
".y c #bcbcbc",
".f c #a1a1a1",
".R c #dfdfdf",
".v c #c4c4c4",
".S c #e7e7e7",
".c c #8e8e8e",
".W c #cccccc",
".C c #efefef",
".6 c #d4d4d4",
"## c #b9b9b9",
".U c #f7f7f7",
".j c #9e9e9e",
".b c #c1c1c1",
".D c #ffffff",
".Q c #e4e4e4",
"#b c #8b8b8b",
"Qt c #c9c9c9",
".1 c #ececec",
".H c #d1d1d1",
"Qt.#.a.#.b.b.b.b.b.b.b.b.b.b.b.c",
".a.d.e.f.g.e.h.i.e.j.k.k.l.l.i.m",
".a.n.o.a.p.q.r.s.s.k.e.p.t.e.l.u",
".v.a.aQt.w.x.y.#.y.y.y.#.y.y.z.A",
".n.B.C.D.w.E.F.F.F.G.D.D.D.D.H.I",
".n.v.J.K.w.E.L.M.L.L.D.D.D.D.N.I",
".n.v.O.K.P.Q.R.M.S.T.U.D.D.D.R.I",
".n.V.K.D.v.Q.D.D.D.D.D.U.D.D.R.I",
".n.W.C.D.v.s.X.O.Y.Z.0.G.D.D.H.I",
".n.v.1.D.P.Q.Z.1.G.F.2.D.D.D.H.I",
".n.V.1.D.w.Q.3.0.1.G.D.D.D.D.H.I",
".n.4.5.D.w.Q.D.K.Z.2.Y.3.D.D.H.I",
".n.Q.J.Z.w.H.o.W.6.7.8.E.Q.Q.9.I",
".vQtQtQt.w.q#.#.#########a#.#..A",
".N.1.S.K.X.C.M.C.C.M.Z.C.S.D.D#b",
"#c#d#d#d#d#d#d#d#d#d#d#d#d#d#d#e"};
