/* XPM */
static char*development_package[]={
"16 16 8 1",
"f c #a0a0a0",
"c c #c0c000",
"b c #808000",
"# c #000000",
"e c #0000c0",
"a c #ffffc0",
". c None",
"d c #ffffff",
".....##...#.....",
"...##aa###a##...",
".##aa##bc##aa##.",
"#aa##bbbccc##aa#",
"################",
".#ddddddddddd##.",
".#ddeeddddddd##.",
".#dedddeddded##.",
".#deddeeedeee##.",
".#dedddeddded##.",
".#ddeeddddddd##.",
".#ddddddddddd##.",
".##############.",
"..##caaaccffff..",
"....##ca##......",
"......##........"};
