/* XPM */
#ifndef _KDE2LAPTOP_MAXBUTTON_XPM_
#define _KDE2LAPTOP_MAXBUTTON_XPM_

static const char* kde2laptop_maxbutton[]={
"20 8 2 1",
". s None c None",
"# c #000000",
"........##..........",
".......####.........",
"......######........",
".....########.......",
".....########.......",
"....................",
".....########.......",
".....########......."};

#endif
