/* XPM */
#ifndef _KDE2_MAXBUTTON_XPM_
#define _KDE2_MAXBUTTON_XPM_

static const char* kde2_maxbutton[]={
"12 12 2 1",
". s None c None",
"# c #000000",
"............",
"............",
"..########..",
"..########..",
"..##....##..",
"..##....##..",
"..##....##..",
"..##....##..",
"..########..",
"..########..",
"............",
"............"};

#endif
