/* XPM */
#ifndef _KDE2LAPTOP_RESTOREBUTTON_XPM_
#define _KDE2LAPTOP_RESTOREBUTTON_XPM_

static const char* kde2laptop_restorebutton[]={
"20 8 2 1",
". s None c None",
"# c #000000",
".......##...........",
"........##..........",
".....##..##.........",
".....###..##........",
".....####..##.......",
".....#####..#.......",
".....######.........",
".....#######........"};

#endif
