/* XPM */
#ifndef _KDE2_RESTOREBUTTON_XPM_
#define _KDE2_RESTOREBUTTON_XPM_

static const char* kde2_restorebutton[]={
"12 12 2 1",
". s None c None",
"# c #000000",
"............",
".########...",
".########...",
".##....##...",
".##.########",
".##.########",
".#####....##",
".#####....##",
"....##....##",
"....########",
"....########",
"............"};

#endif
