/* XPM */
#ifndef _KDE_MINBUTTON_XPM_
#define _KDE_MINBUTTON_XPM_

static const char *kde_minbutton[] = {
/* width height num_colors chars_per_pixel */
"16 16 3 1",
/* colors */
" 	s None	c None",
".	c white",
"X	c #707070",
/* pixels */
"                ",
"                ",
"                ",
"                ",
"                ",
"                ",
"      ...       ",
"      . X       ",
"      .XX       ",
"                ",
"                ",
"                ",
"                ",
"                ",
"                ",
"                "};

#endif
