/* XPM */
#ifndef _KDE_UNDOCKBUTTON_XPM_
#define _KDE_UNDOCKBUTTON_XPM_

static const char *kde_undockbutton[]={
"16 16 3 1",
". c None",
"# c #ffffff",
"a c #707070",
"................",
"................",
"..#aaaaaaa......",
"..#aa#####......",
"..#aaa..........",
"..#a#aa.........",
"..#a.#aa........",
"..#a..#aa.......",
"..#a...#aa......",
"..#a....#aa.....",
".........#aa....",
"..........#aa...",
"...........#aa..",
"............#...",
"................",
"................"};

#endif
