/* XPM */
#ifndef _KDE_RESTOREBUTTON_XPM_
#define _KDE_RESTOREBUTTON_XPM_

static const char *kde_restorebutton[] = {
/* width height num_colors chars_per_pixel */
"16 16 3 1",
/* colors */
" 	s None	c None",
".	c #707070",
"X	c white",
/* pixels */
"                ",
"                ",
"  ...........   ",
"  .XXXXXXXXXX   ",
"  .X       .X   ",
"  .X       .X   ",
"  .X       .X   ",
"  .X       .X   ",
"  .X       .X   ",
"  .X       .X   ",
"  .X       .X   ",
"  .X........X   ",
"  .XXXXXXXXXX   ",
"                ",
"                ",
"                "};

#endif
