/* XPM */
#ifndef _WIN_MINBUTTON_XPM_
#define _WIN_MINBUTTON_XPM_

static const char *win_minbutton[] = {
/* width height num_colors chars_per_pixel */
"    16    14        4            1",
/* colors */
". c #000000",
"# c #808080",
"a c None",
"b c #ffffff",
/* pixels */
"bbbbbbbbbbbbbbb.",
"baaaaaaaaaaaaa#.",
"baaaaaaaaaaaaa#.",
"baaaaaaaaaaaaa#.",
"baaaaaaaaaaaaa#.",
"baaaaaaaaaaaaa#.",
"baaaaaaaaaaaaa#.",
"baaaaaaaaaaaaa#.",
"baaaaaaaaaaaaa#.",
"baaa......aaaa#.",
"baaa......aaaa#.",
"baaaaaaaaaaaaa#.",
"b##############.",
"................"
};

#endif
