/* XPM */
#ifndef _WIN_UNDOCKBUTTON_XPM_
#define _WIN_UNDOCKBUTTON_XPM_

static const char* win_undockbutton[]={
"16 14 4 1",
"b c #808080",
"# c #000000",
"a c None",
". c #ffffff",
"...............#",
".aaaaaaaaaaaaab#",
".aaaaaaaaaaaaab#",
".aaa####aaaaaab#",
".aaa###aaaaaaab#",
".aaa####aaaaaab#",
".aaa#a###aaaaab#",
".aaaaaa###aaaab#",
".aaaaaaa###aaab#",
".aaaaaaaa###aab#",
".aaaaaaaaa#aaab#",
".aaaaaaaaaaaaab#",
".bbbbbbbbbbbbbb#",
"################"};

#endif
