/* XPM */
const char * b_left_xpm[] = {
"16 16 7 1",
" 	c None",
".	c None",
"+	c #000000",
"@	c #FFFF99",
"#	c #CC6633",
"$	c #FFCC33",
"%	c #868686",
"................",
"........+.......",
".......++.......",
"......+@+.......",
".....+#@+++++++.",
"....+#$@@@@@@@+.",
"...+#$$$$$$$$@+.",
"..+#$$$$$$$$$@+.",
".%%+#$$$$$$$$@+.",
"..%%+#$$######+.",
"...%%+#$+++++++.",
"....%%+#+.......",
".....%%++.......",
"......%%+.......",
".......%........",
"................"};
