/* XPM */
const char*dock_close_right[]={
"16 16 4 1",
"b c #c0c000",
"# c #c0c0c0",
"a c #868686",
". c #ffffff",
"........#......#",
".#######a.bbbbba",
".#######a.bbbbba",
".#######a.bbbbba",
".#######a.bbbbba",
".#######a.bbbbba",
".#######a.bbbbba",
".#######a.bbbbba",
".#######a.bbbbba",
".#######a.bbbbba",
".#######a.bbbbba",
".#######a.bbbbba",
".#######a.bbbbba",
".#######a.bbbbba",
".#######a.bbbbba",
"#aaaaaaaa#aaaaaa"};
