/* XPM */
const char*dock_close_left[]={
"16 16 4 1",
"a c #c0c000",
"# c #c0c0c0",
"b c #868686",
". c #ffffff",
"......#........#",
".aaaaab.#######b",
".aaaaab.#######b",
".aaaaab.#######b",
".aaaaab.#######b",
".aaaaab.#######b",
".aaaaab.#######b",
".aaaaab.#######b",
".aaaaab.#######b",
".aaaaab.#######b",
".aaaaab.#######b",
".aaaaab.#######b",
".aaaaab.#######b",
".aaaaab.#######b",
".aaaaab.#######b",
"#bbbbbb#bbbbbbbb"};
