/* XPM */
const char*not_close_xpm[]={
"5 5 2 1",
"# c #000000",
". c None",
"#####",
"#...#",
"#...#",
"#...#",
"#####"};

