/* XPM */
#ifndef _KDE2_UNDOCKBUTTON_XPM_
#define _KDE2_UNDOCKBUTTON_XPM_

static const char* kde2_undockbutton[]={
"12 12 2 1",
". s None c None",
"# c #000000",
"............",
".#####......",
".#####......",
".####.......",
".#####......",
".##.###.....",
".....###....",
"......###...",
".......###..",
"........##..",
"............",
"............"};

#endif
