/* XPM */
#ifndef _WIN_MAXBUTTON_XPM_
#define _WIN_MAXBUTTON_XPM_

static const char *win_maxbutton[] = {
/* width height num_colors chars_per_pixel */
"    16    14        4            1",
/* colors */
". c #000000",
"# c #808080",
"a c None",
"b c #ffffff",
/* pixels */
"bbbbbbbbbbbbbbb.",
"baaaaaaaaaaaaa#.",
"baa.........aa#.",
"baa.........aa#.",
"baa.aaaaaaa.aa#.",
"baa.aaaaaaa.aa#.",
"baa.aaaaaaa.aa#.",
"baa.aaaaaaa.aa#.",
"baa.aaaaaaa.aa#.",
"baa.aaaaaaa.aa#.",
"baa.........aa#.",
"baaaaaaaaaaaaa#.",
"b##############.",
"................"
};

#endif
