/* XPM */
#ifndef _WIN_CLOSEBUTTON_XPM_
#define _WIN_CLOSEBUTTON_XPM_

static const char *win_closebutton[] = {
/* width height num_colors chars_per_pixel */
"    16    14        4            1",
/* colors */
". c #000000",
"# c #808080",
"a c None",
"b c #ffffff",
/* pixels */
"bbbbbbbbbbbbbbb.",
"baaaaaaaaaaaaa#.",
"baaaaaaaaaaaaa#.",
"baaa..aaaa..aa#.",
"baaaa..aa..aaa#.",
"baaaaa....aaaa#.",
"baaaaaa..aaaaa#.",
"baaaaa....aaaa#.",
"baaaa..aa..aaa#.",
"baaa..aaaa..aa#.",
"baaaaaaaaaaaaa#.",
"baaaaaaaaaaaaa#.",
"b##############.",
"................"
};

#endif
