/* XPM */
static char * pgmnext_xpm[] = {
"22 22 3 1",
" 	s None	c None",
".	c dark red",
"X	c black",
"                      ",
"                      ",
"        .......       ",
"      ...........     ",
"     ....     ....    ",
"    ...         ... . ",
"     .           .... ",
"                  ... ",
"       XX    XX  .... ",
"      XX      XX      ",
"      XX      XX      ",
"      XX      XX      ",
"     XX        XX     ",
"    XX          XX    ",
"     XX        XX     ",
"      XX      XX      ",
"      XX      XX      ",
"      XX      XX      ",
"       XX    XX       ",
"                      ",
"                      ",
"                      "};
