/* XPM */
static char * pgmrun_xpm[] = {
"22 22 6 1",
" 	s None	c None",
".	c black",
"X	c dark red",
"o	c white",
"O	c dark gray",
"+	c gray",
"                      ",
"                      ",
"                      ",
"         ........     ",
"   XX    .oooooo.O    ",
"   XX+   .oooooo.oO   ",
"   XX+   .oooooo...O  ",
"   XX+   .oo...ooooO  ",
"   XX+   .oooooooooO  ",
"   XX+   .oo.....ooO  ",
"   XX+   .oooooooooO  ",
"   XX+   .oo.....ooO  ",
"   XX+   .oooooooooO  ",
"   XX+   .oo.....ooO  ",
" X XX+X  .oooooooooO  ",
" XXXXXX+ .oo.....ooO  ",
"  XXXX+  .oooooooooO  ",
"   XX+   .oooooooooO  ",
"    +    OOOOOOOOOOO  ",
"                      ",
"                      ",
"                      "};
