/* XPM */
static char*dbgrestart[]={
"22 22 5 1",
". c None",
"a c #000000",
"# c #800000",
"c c #a9a9a9",
"b c #ffffff",
"......................",
"......................",
".....#................",
".....##..aaaaaaaa.....",
"...#####.abbbbbbac....",
"..######.abbbbbbabc...",
"..##.##..abbbbbbaaac..",
"..##.#...abbaaabbbbc..",
"..##.....abbbbbbbbbc..",
"..##.....abbaaaaabbc..",
"..##.....abbbbbbbbbc..",
"..##.....abbaaaaabbc..",
"..##.....abbbbbbbbbc..",
"..##.....abbaaaaabbc..",
"..##.....abbbbbbbbbc..",
"..####...abbaaaaabbc..",
"...#####.abbbbbbbbbc..",
".....###.abbbbbbbbbc..",
".........ccccccccccc..",
"......................",
"......................",
"......................"};
