/* XPM */
static char*dbgstepout[]={
"22 22 3 1",
"a c #000000",
"# c #8b0000",
". c None",
"................#.....",
"................##....",
"............#######...",
"...........########...",
"..........###...##....",
"..........##....#.....",
"..........##..........",
"..........##..........",
".......aa.##.aa.......",
"......aa..##..aa......",
"......aa..##..aa......",
"......aa..##..aa......",
".....aa...##...aa.....",
"....aa....##....aa....",
".....aa...##...aa.....",
"......aa..##..aa......",
"......aa......aa......",
"......aa......aa......",
".......aa....aa.......",
"......................",
"......................",
"......................"};
