/* XPM */
static char*dbgvar[]={
"22 22 3 1",
"# c #000000",
". c None",
"a c #c00000",
"......................",
"......................",
"......................",
"......................",
"......................",
"......................",
"......................",
"......................",
".......##....##.......",
"......##......##......",
"......##......##......",
"......##......##......",
".....##........##.....",
"....##..........##....",
".....##........##.....",
"......##......##......",
"......##..aa..##......",
"......##..aa..##......",
".......##....##.......",
"......................",
"......................",
"......................"};
