/* XPM */
static const char* undockbutton[]={
"16 14 4 1",
"b c #808080",
"# c #000000",
"a c None",
". c #ffffff",
"...............#",
".aaaaaaaaaaaaab#",
".aaaaa###aaaaab#",
".aaaa#aaa#aaaab#",
".aaa#aaaaa#aaab#",
".aa#aaaaaaa#aab#",
".aa#aaaaaaa#aab#",
".aa#aaaaaaa#aab#",
".aaa#aaaaa#aaab#",
".aaaa#aaa#aaaab#",
".aaaaa###aaaaab#",
".aaaaaaaaaaaaab#",
".bbbbbbbbbbbbbb#",
"################"};
