/* XPM */
static char*dbgbreak[]={
"22 22 2 1",
". c None",
"# c #0000ff",
"......................",
"......................",
"......................",
".....####...####......",
".....####...####......",
".....####...####......",
".....####...####......",
".....####...####......",
".....####...####......",
".....####...####......",
".....####...####......",
".....####...####......",
".....####...####......",
".....####...####......",
".....####...####......",
".....####...####......",
".....####...####......",
".....####...####......",
"......................",
"......................",
"......................",
"......................"};
