/* XPM */
static char*dbgmemview[]={
"22 22 4 1",
"# c #000000",
"b c #a9a9a9",
"a c #ffffff",
". c None",
"......................",
"......................",
"......................",
"......########........",
"......#aaaaaa#b.......",
"......#aaaaaa#ab......",
"......#aaaaaa###b.....",
"......#aa###aaaab.....",
"......#aaaaaaaaab.....",
"......#aa#####aab.....",
"......#aaaaaaaaab.....",
"......#aa#####aab.....",
"......#aaaaaaaaab.....",
"......#aa#####aab.....",
"......#aaaaaaaaab.....",
"......#aa#####aab.....",
"......#aaaaaaaaab.....",
"......#aaaaaaaaab.....",
"......bbbbbbbbbbb.....",
"......................",
"......................",
"......................"};
