/* XPM */
const char*bookmark_xpm[]={
"12 16 4 1",
"b c #808080",
"a c #000080",
"# c #0000ff",
". c None",
"............",
"............",
"........###.",
".......#...a",
"......#.##.a",
".....#.#..aa",
"....#.#...a.",
"...#.#.a.a..",
"..#.#.a.a...",
".#.#.a.a....",
"#.#.a.a.....",
"#.#a.a...bbb",
"#...a..bbb..",
".aaa.bbb....",
"............",
"............"};
