/* XPM */
const char* breakpoint_xpm[]={
"11 16 6 1",
"c c #c6c6c6",
". c None",
"# c #000000",
"d c #840000",
"a c #ffffff",
"b c #ff0000",
"...........",
"...........",
"...#####...",
"..#aaaaa#..",
".#abbbbbb#.",
"#abbbbbbbb#",
"#abcacacbd#",
"#abbbbbbbb#",
"#abcacacbd#",
"#abbbbbbbb#",
".#bbbbbbb#.",
"..#bdbdb#..",
"...#####...",
"...........",
"...........",
"..........."};
