/* XPM */
const char*breakpoint_bl_xpm[]={
"11 16 7 1",
"a c #c0c0ff",
"# c #000000",
"c c #0000c0",
"e c #0000ff",
"b c #dcdcdc",
"d c #ffffff",
". c None",
"...........",
"...........",
"...#####...",
"..#ababa#..",
".#bcccccc#.",
"#acccccccc#",
"#bcadadace#",
"#acccccccc#",
"#bcadadace#",
"#acccccccc#",
".#ccccccc#.",
"..#cecec#..",
"...#####...",
"...........",
"...........",
"..........."};
