/* XPM */
const char*ddd_xpm[]={
"11 16 4 1",
"a c #00ff00",
"b c #000000",
". c None",
"# c #00c000",
"...........",
"...........",
"...........",
"#a.........",
"#aaa.......",
"#aaaaa.....",
"#aaaaaaa...",
"#aaaaaaaaa.",
"#aaaaaaa#b.",
"#aaaaa#b...",
"#aaa#b.....",
"#a#b.......",
"#b.........",
"...........",
"...........",
"..........."};
